<svg xmlns="http://www.w3.org/2000/svg" xmlns:xlink="http://www.w3.org/1999/xlink" width="500" zoomAndPan="magnify" viewBox="0 0 375 374.999991" height="500" preserveAspectRatio="xMidYMid meet" version="1.2"><defs><clipPath id="c0f2a2543e"><path d="M 157.355469 90.695312 L 217.632812 90.695312 L 217.632812 205.066406 L 157.355469 205.066406 Z M 157.355469 90.695312 "/></clipPath><clipPath id="a0316cf107"><path d="M 180 88.300781 L 197 88.300781 L 197 112 L 180 112 Z M 180 88.300781 "/></clipPath><clipPath id="fd4a6dcf6a"><path d="M 88.226562 206 L 174 206 L 174 240.75 L 88.226562 240.75 Z M 88.226562 206 "/></clipPath><clipPath id="6f8c2b052c"><path d="M 139 187.5 L 177 187.5 L 177 228 L 139 228 Z M 139 187.5 "/></clipPath><clipPath id="ecc38b0c63"><path d="M 182 206 L 268 206 L 268 240.75 L 182 240.75 Z M 182 206 "/></clipPath><clipPath id="0d1c33c47b"><path d="M 179 187.5 L 217 187.5 L 217 228 L 179 228 Z M 179 187.5 "/></clipPath><clipPath id="360b94648a"><path d="M 41 42 L 290 42 L 290 333 L 41 333 Z M 41 42 "/></clipPath><clipPath id="d945440aff"><path d="M 46.886719 36.550781 L 339.164062 48.015625 L 327.757812 338.792969 L 35.480469 327.328125 Z M 46.886719 36.550781 "/></clipPath><clipPath id="68adddbd51"><path d="M 35.496094 326.964844 L 327.773438 338.429688 L 339.175781 47.652344 L 46.902344 36.1875 Z M 35.496094 326.964844 "/></clipPath><clipPath id="10cdce6877"><path d="M 282 249 L 331 249 L 331 298 L 282 298 Z M 282 249 "/></clipPath><clipPath id="de0c5211d2"><path d="M 46.886719 36.550781 L 339.164062 48.015625 L 327.757812 338.792969 L 35.480469 327.328125 Z M 46.886719 36.550781 "/></clipPath><clipPath id="69440ec869"><path d="M 35.496094 326.964844 L 327.773438 338.429688 L 339.175781 47.652344 L 46.902344 36.1875 Z M 35.496094 326.964844 "/></clipPath><clipPath id="4655e84afd"><path d="M 287 218 L 309 218 L 309 239 L 287 239 Z M 287 218 "/></clipPath><clipPath id="25502ccc29"><path d="M 46.886719 36.550781 L 339.164062 48.015625 L 327.757812 338.792969 L 35.480469 327.328125 Z M 46.886719 36.550781 "/></clipPath><clipPath id="f81a555b34"><path d="M 35.496094 326.964844 L 327.773438 338.429688 L 339.175781 47.652344 L 46.902344 36.1875 Z M 35.496094 326.964844 "/></clipPath><clipPath id="b55714881b"><path d="M 254 235 L 283 235 L 283 264 L 254 264 Z M 254 235 "/></clipPath><clipPath id="8c8f4a15d7"><path d="M 46.886719 36.550781 L 339.164062 48.015625 L 327.757812 338.792969 L 35.480469 327.328125 Z M 46.886719 36.550781 "/></clipPath><clipPath id="3d66ab1145"><path d="M 35.496094 326.964844 L 327.773438 338.429688 L 339.175781 47.652344 L 46.902344 36.1875 Z M 35.496094 326.964844 "/></clipPath></defs><g id="98af4b533a"><g clip-rule="nonzero" clip-path="url(#c0f2a2543e)"><path style=" stroke:none;fill-rule:nonzero;fill:#d3d2af;fill-opacity:1;" d="M 181.832031 203.933594 C 175.296875 197.691406 190.175781 192.773438 193.769531 189.714844 C 197.226562 186.769531 197.46875 182.570312 193.871094 179.707031 C 188.992188 175.824219 182.605469 176.492188 176.824219 176.027344 C 174.742188 175.859375 172.375 175.53125 171.457031 173.328125 C 170.613281 171.308594 171.90625 168.976562 172.984375 167.34375 C 175.390625 163.707031 179.238281 162.167969 183.480469 162.355469 C 189.644531 162.632812 195.019531 166.558594 201.171875 167.070312 C 207.1875 167.574219 212.125 162.875 215.160156 158.175781 C 217.925781 153.890625 218.488281 148.519531 216.261719 143.910156 C 213.84375 138.902344 208.230469 136.664062 203.046875 136.019531 C 195.496094 135.082031 187.96875 138.859375 180.921875 140.945312 C 173.976562 142.996094 165.148438 143.179688 160.605469 136.519531 C 157.488281 131.953125 158.398438 125.738281 160.757812 121.085938 C 164.0625 114.570312 170.976562 110.917969 178.179688 111.261719 C 185.054688 111.589844 191.296875 115.054688 198.300781 114.4375 C 203.390625 113.992188 208.886719 110.996094 210.394531 105.847656 C 211.617188 101.648438 208.546875 97.609375 204.765625 96.125 C 202.0625 95.066406 199.648438 94.902344 196.808594 95.351562 C 194.78125 95.675781 192.800781 96.113281 190.75 95.710938 C 188.535156 95.277344 188.011719 92.128906 190.40625 91.824219 C 191.457031 91.691406 192.476562 91.96875 193.425781 92.367188 C 194.175781 92.679688 194.5 91.457031 193.761719 91.148438 C 191.3125 90.125 184.171875 91.167969 187.691406 95.089844 C 189.566406 97.175781 191.804688 97.3125 194.492188 96.996094 C 198.550781 96.515625 201.757812 95.863281 205.550781 97.914062 C 208.34375 99.421875 209.828125 102.414062 209.175781 105.511719 C 208.355469 109.394531 204.246094 111.640625 200.792969 112.6875 C 193.574219 114.882812 186.148438 110.929688 179.027344 110.074219 C 167.714844 108.714844 157.804688 117.933594 157.367188 129.074219 C 157.199219 133.363281 159.027344 137.871094 162.566406 140.417969 C 167.828125 144.199219 174.300781 143.972656 180.316406 142.421875 C 188.65625 140.273438 196.601562 135.871094 205.453125 137.679688 C 212.464844 139.109375 217.433594 145.023438 216.183594 152.273438 C 214.957031 159.375 207.863281 166.367188 200.480469 165.753906 C 194.328125 165.238281 189.003906 161.34375 182.742188 161.0625 C 177.101562 160.808594 172.316406 164.535156 170.355469 169.695312 C 168.113281 175.59375 173.957031 177.132812 178.386719 177.398438 C 181.667969 177.59375 184.78125 177.464844 187.988281 178.335938 C 191.207031 179.210938 196.183594 181.425781 195.171875 185.578125 C 194.324219 189.054688 189.988281 190.8125 187.203125 192.328125 C 184.605469 193.746094 181.960938 195.234375 180.011719 197.507812 C 177.847656 200.023438 178.753906 202.738281 180.941406 204.828125 C 181.53125 205.386719 182.421875 204.496094 181.832031 203.933594 "/></g><path style=" stroke:none;fill-rule:nonzero;fill:#f4af00;fill-opacity:1;" d="M 169.554688 126.773438 C 169.277344 130.5625 172.328125 132.617188 175.625 133.613281 C 176.15625 133.769531 176.425781 133.03125 175.988281 132.746094 C 174.464844 131.753906 172.804688 130.925781 171.667969 129.453125 C 169.90625 127.167969 172.058594 123.730469 173.6875 122.0625 C 177.503906 118.152344 185.542969 119.28125 190.476562 119.265625 C 197.304688 119.242188 207.144531 118.347656 211.394531 112.109375 C 211.640625 111.746094 211.105469 111.375 210.804688 111.65625 C 201.113281 120.6875 188.003906 115.546875 176.527344 118.753906 C 173.058594 119.722656 169.832031 123.0625 169.554688 126.773438 "/><path style=" stroke:none;fill-rule:nonzero;fill:#f4af00;fill-opacity:1;" d="M 179.949219 148.738281 C 184.191406 148.640625 187.980469 147.632812 192.097656 146.671875 C 195.265625 145.929688 203.007812 147.109375 200.777344 152.132812 C 199.792969 154.347656 197.246094 155.726562 195.300781 156.964844 C 194.898438 157.222656 195.152344 157.867188 195.628906 157.742188 C 198.941406 156.847656 202.710938 153.964844 202.601562 150.210938 C 202.453125 145.167969 195.226562 144.648438 191.730469 145.34375 C 188.824219 145.917969 186.105469 146.945312 183.136719 147.246094 C 180.878906 147.472656 178.605469 147.515625 176.339844 147.464844 C 171.417969 147.351562 164.398438 146.710938 161.625 141.972656 C 161.332031 141.480469 160.628906 141.914062 160.867188 142.417969 C 163.886719 148.828125 173.980469 148.867188 179.949219 148.738281 "/><path style=" stroke:none;fill-rule:nonzero;fill:#f4af00;fill-opacity:1;" d="M 207.8125 168.101562 C 202.578125 168.804688 197.902344 169.472656 192.734375 167.875 C 190.253906 167.105469 187.753906 166.484375 185.167969 166.195312 C 180.652344 165.691406 175.210938 167.289062 175.109375 172.679688 C 175.101562 173.085938 175.742188 173.308594 175.917969 172.898438 C 177.007812 170.335938 178.058594 168.519531 180.90625 167.746094 C 183.496094 167.039062 186.367188 167.566406 188.925781 168.132812 C 191.621094 168.734375 194.183594 169.664062 196.9375 170.03125 C 200.546875 170.511719 204.589844 170.035156 208.019531 168.851562 C 208.507812 168.683594 208.300781 168.035156 207.8125 168.101562 "/><path style=" stroke:none;fill-rule:nonzero;fill:#f4af00;fill-opacity:1;" d="M 178.945312 183.484375 C 174.886719 182.394531 171.238281 184.398438 167.96875 180.757812 C 165.160156 177.640625 164.671875 172.636719 167.445312 169.421875 C 167.824219 168.980469 167.261719 168.4375 166.820312 168.792969 C 162.875 171.957031 164.292969 178.027344 166.949219 181.542969 C 168.28125 183.308594 170.367188 184.605469 172.609375 184.71875 C 175.175781 184.847656 177.824219 184.335938 180.230469 185.492188 C 184.0625 187.332031 181.214844 190.628906 179.355469 192.472656 C 178.898438 192.925781 179.476562 193.625 180.023438 193.339844 C 185.125 190.6875 184.390625 184.941406 178.945312 183.484375 "/><g clip-rule="nonzero" clip-path="url(#a0316cf107)"><path style=" stroke:none;fill-rule:nonzero;fill:#f4af00;fill-opacity:1;" d="M 187.578125 102.007812 C 189.449219 102.414062 191.335938 102.472656 193.121094 103.230469 C 198.230469 105.410156 192.652344 109.835938 190.28125 111.179688 C 189.90625 111.390625 190.160156 111.96875 190.566406 111.863281 C 195.1875 110.679688 199.019531 105.398438 193.722656 102.203125 C 190.828125 100.457031 187.078125 101.191406 184.074219 99.382812 C 178.351562 95.925781 183.964844 90.171875 188.011719 88.820312 C 188.308594 88.71875 188.1875 88.300781 187.882812 88.351562 C 183.410156 89.117188 179.199219 93.1875 181.230469 97.921875 C 182.261719 100.320312 185.238281 101.503906 187.578125 102.007812 "/></g><path style=" stroke:none;fill-rule:nonzero;fill:#f4af00;fill-opacity:1;" d="M 179.890625 139.078125 C 180.132812 138.953125 180.03125 138.515625 179.746094 138.546875 C 174.558594 139.132812 170.671875 137.539062 168.09375 132.804688 C 165.574219 128.175781 166.183594 122.320312 170.320312 118.898438 C 170.628906 118.644531 170.226562 118.125 169.898438 118.347656 C 160.355469 124.808594 168.832031 144.804688 179.890625 139.078125 "/><path style=" stroke:none;fill-rule:nonzero;fill:#f4af00;fill-opacity:1;" d="M 165.632812 135.871094 C 166.085938 136.214844 166.519531 135.515625 166.203125 135.136719 C 164.71875 133.382812 163.433594 131.703125 162.6875 129.503906 C 161.753906 126.753906 162.761719 124.347656 163.871094 121.863281 C 163.925781 121.738281 163.792969 121.636719 163.683594 121.71875 C 158.875 125.46875 161.515625 132.773438 165.632812 135.871094 "/><path style=" stroke:none;fill-rule:nonzero;fill:#f4af00;fill-opacity:1;" d="M 185.296875 95.683594 C 185.238281 95.570312 185.078125 95.667969 185.125 95.785156 C 186.371094 98.691406 190.355469 99.238281 193.089844 100.007812 C 195.117188 100.574219 197.210938 101.070312 199.050781 102.125 C 201.382812 103.464844 200.160156 105.257812 199.542969 107.191406 C 199.445312 107.503906 199.847656 107.855469 200.128906 107.640625 C 203.394531 105.179688 201.480469 101.808594 198.402344 100.550781 C 196.148438 99.625 193.753906 99.144531 191.390625 98.570312 C 189.609375 98.132812 186.226562 97.511719 185.296875 95.683594 "/><path style=" stroke:none;fill-rule:nonzero;fill:#f4af00;fill-opacity:1;" d="M 198.402344 109.972656 C 198.550781 109.832031 198.394531 109.527344 198.191406 109.609375 C 197.574219 109.859375 196.949219 110.109375 196.324219 110.335938 C 196.214844 110.375 196.207031 110.53125 196.324219 110.566406 C 197.144531 110.800781 197.792969 110.535156 198.402344 109.972656 "/><path style=" stroke:none;fill-rule:nonzero;fill:#f4af00;fill-opacity:1;" d="M 199.007812 98.8125 C 199.589844 99.089844 200.261719 99.089844 200.875 99.296875 C 201.539062 99.519531 202.164062 99.984375 202.738281 100.378906 C 202.976562 100.542969 203.203125 100.234375 203.101562 100.015625 C 202.492188 98.738281 200.246094 97.574219 198.976562 98.566406 C 198.898438 98.625 198.921875 98.773438 199.007812 98.8125 "/><path style=" stroke:none;fill-rule:nonzero;fill:#f4af00;fill-opacity:1;" d="M 203.082031 106.941406 C 202.128906 108.414062 200.699219 109.429688 199.210938 110.300781 C 199.015625 110.417969 199.1875 110.6875 199.386719 110.601562 C 201.109375 109.84375 202.863281 109.015625 204.03125 107.496094 C 205.183594 106 205.25 103.882812 204.734375 102.144531 C 204.605469 101.71875 203.910156 101.785156 203.941406 102.25 C 204.042969 103.949219 204.03125 105.46875 203.082031 106.941406 "/><path style=" stroke:none;fill-rule:nonzero;fill:#f4af00;fill-opacity:1;" d="M 164.238281 120.085938 C 164.671875 119.992188 164.933594 119.734375 165.171875 119.363281 C 165.273438 119.210938 165.085938 119.070312 164.945312 119.136719 C 164.527344 119.332031 164.183594 119.398438 164.011719 119.863281 C 163.960938 120 164.113281 120.113281 164.238281 120.085938 "/><path style=" stroke:none;fill-rule:nonzero;fill:#f4af00;fill-opacity:1;" d="M 167.953125 117.382812 C 170.890625 115.441406 173.429688 114.339844 177.046875 114.496094 C 178.765625 114.570312 180.375 115.246094 182.074219 115.390625 C 183.894531 115.546875 185.597656 115.113281 187.398438 114.839844 C 187.527344 114.820312 187.492188 114.617188 187.367188 114.617188 C 184.753906 114.625 182.515625 114.632812 179.964844 113.875 C 178.183594 113.347656 176.324219 113.257812 174.484375 113.371094 C 171.882812 113.535156 168.835938 114.550781 167.472656 116.90625 C 167.304688 117.199219 167.652344 117.582031 167.953125 117.382812 "/><path style=" stroke:none;fill-rule:nonzero;fill:#f4af00;fill-opacity:1;" d="M 199.722656 159.089844 C 199.390625 159.316406 199.59375 159.953125 200.015625 159.785156 C 206.523438 157.175781 210.183594 151.734375 205.472656 145.539062 C 203.519531 142.976562 200.453125 141.695312 197.300781 141.632812 C 195.230469 141.589844 193.058594 142.433594 191.101562 143 C 188.148438 143.859375 185.082031 144.238281 182.027344 144.574219 C 181.8125 144.597656 181.800781 144.925781 182.027344 144.917969 C 184.90625 144.8125 187.535156 144.800781 190.355469 144.136719 C 194.195312 143.238281 197.640625 141.902344 201.476562 143.691406 C 204.625 145.15625 207.246094 149.191406 206.460938 152.667969 C 205.769531 155.726562 202.0625 157.488281 199.722656 159.089844 "/><path style=" stroke:none;fill-rule:nonzero;fill:#f4af00;fill-opacity:1;" d="M 197.351562 160.703125 C 197.570312 160.65625 197.5 160.351562 197.300781 160.335938 C 192.085938 159.875 187.132812 158.183594 181.960938 157.667969 C 178.351562 157.308594 173.621094 158.757812 171.632812 161.988281 C 171.464844 162.257812 171.875 162.589844 172.078125 162.335938 C 179.09375 153.664062 188.898438 162.484375 197.351562 160.703125 "/><path style=" stroke:none;fill-rule:nonzero;fill:#f4af00;fill-opacity:1;" d="M 170.035156 165.347656 C 170.25 164.601562 170.613281 164.03125 171.035156 163.390625 C 171.214844 163.121094 170.875 162.839844 170.617188 162.972656 C 169.804688 163.394531 169.5 164.308594 169.296875 165.144531 C 169.179688 165.625 169.902344 165.828125 170.035156 165.347656 "/><path style=" stroke:none;fill-rule:nonzero;fill:#f4af00;fill-opacity:1;" d="M 174.589844 144.914062 C 174.15625 144.957031 174.160156 145.539062 174.589844 145.585938 C 175.949219 145.734375 177.429688 145.910156 178.769531 145.566406 C 178.988281 145.511719 178.988281 145.1875 178.769531 145.128906 C 177.441406 144.777344 175.953125 144.777344 174.589844 144.914062 "/><path style=" stroke:none;fill-rule:nonzero;fill:#f4af00;fill-opacity:1;" d="M 210.503906 146.054688 C 210.253906 145.707031 209.660156 145.902344 209.785156 146.359375 C 210.9375 150.527344 210.648438 153.789062 208.234375 157.480469 C 205.667969 161.410156 201.53125 163.460938 196.898438 163.023438 C 196.6875 163.003906 196.613281 163.324219 196.792969 163.421875 C 200.84375 165.589844 206.042969 161.832031 208.554688 158.855469 C 211.3125 155.578125 213.257812 149.871094 210.503906 146.054688 "/><path style=" stroke:none;fill-rule:nonzero;fill:#f4af00;fill-opacity:1;" d="M 199.570312 140.035156 C 199.78125 139.984375 199.789062 139.65625 199.570312 139.609375 C 198.804688 139.433594 198 139.503906 197.226562 139.65625 C 196.96875 139.707031 196.960938 140.144531 197.226562 140.1875 C 198.007812 140.320312 198.8125 140.230469 199.570312 140.035156 "/><path style=" stroke:none;fill-rule:nonzero;fill:#f4af00;fill-opacity:1;" d="M 208.335938 143.464844 C 207.578125 141.351562 204.113281 138.972656 201.839844 139.71875 C 201.542969 139.816406 201.539062 140.230469 201.839844 140.328125 C 203.066406 140.714844 204.144531 140.820312 205.246094 141.566406 C 206.203125 142.210938 206.867188 143.289062 207.90625 143.792969 C 208.117188 143.890625 208.429688 143.726562 208.335938 143.464844 "/><path style=" stroke:none;fill-rule:nonzero;fill:#f4af00;fill-opacity:1;" d="M 167.4375 171.71875 C 166.671875 174.171875 166.910156 176.429688 168.652344 178.386719 C 170.117188 180.035156 173.097656 181.273438 175.273438 180.71875 C 175.582031 180.640625 175.550781 180.222656 175.273438 180.128906 C 173.253906 179.4375 171.304688 179.449219 169.519531 178.070312 C 167.585938 176.574219 167.304688 174.074219 167.875 171.839844 C 167.949219 171.554688 167.523438 171.441406 167.4375 171.71875 "/><path style=" stroke:none;fill-rule:nonzero;fill:#f4af00;fill-opacity:1;" d="M 177.304688 179.09375 C 176.882812 179.117188 176.886719 179.710938 177.304688 179.742188 C 181.898438 180.082031 189.027344 180.386719 189.023438 186.453125 C 189.023438 186.9375 189.785156 187.0625 189.886719 186.570312 C 191.257812 179.964844 181.832031 178.808594 177.304688 179.09375 "/><path style=" stroke:none;fill-rule:nonzero;fill:#f4af00;fill-opacity:1;" d="M 185.078125 183.105469 C 183.53125 181.796875 181.214844 181.128906 179.214844 181.390625 C 178.78125 181.445312 178.773438 182.023438 179.214844 182.070312 C 180.789062 182.238281 182.316406 182.679688 183.6875 183.472656 C 184.4375 183.90625 185.117188 184.546875 185.453125 185.359375 C 185.773438 186.132812 185.546875 186.964844 185.457031 187.757812 C 185.40625 188.1875 185.980469 188.226562 186.183594 187.953125 C 187.390625 186.316406 186.460938 184.277344 185.078125 183.105469 "/><path style=" stroke:none;fill-rule:nonzero;fill:#f4af00;fill-opacity:1;" d="M 178.691406 194.671875 C 179.234375 194.226562 178.460938 193.472656 177.925781 193.90625 C 176.253906 195.261719 173.859375 199.90625 176.378906 201.53125 C 176.5625 201.652344 176.785156 201.457031 176.734375 201.261719 C 176.128906 198.964844 176.796875 196.246094 178.691406 194.671875 "/><path style=" stroke:none;fill-rule:nonzero;fill:#f4af00;fill-opacity:1;" d="M 178.039062 203.28125 C 177.761719 202.796875 176.929688 203.121094 177.121094 203.667969 C 177.394531 204.460938 177.988281 205.59375 178.898438 205.761719 C 179.195312 205.816406 179.546875 205.566406 179.429688 205.230469 C 179.175781 204.496094 178.429688 203.960938 178.039062 203.28125 "/><g clip-rule="nonzero" clip-path="url(#fd4a6dcf6a)"><path style=" stroke:none;fill-rule:nonzero;fill:#d3d2af;fill-opacity:1;" d="M 88.429688 206.628906 L 105.832031 240.75 L 95.835938 213.566406 C 95.835938 213.566406 150.164062 218.132812 173.859375 240.75 C 173.859375 240.75 165.15625 214.25 88.429688 206.628906 Z M 88.429688 206.628906 "/></g><path style=" stroke:none;fill-rule:nonzero;fill:#d3d2af;fill-opacity:1;" d="M 116.367188 194.117188 L 116.367188 206.628906 C 155.339844 211.625 176.84375 233.917969 176.84375 233.917969 C 161.128906 206.195312 116.367188 194.117188 116.367188 194.117188 Z M 116.367188 194.117188 "/><g clip-rule="nonzero" clip-path="url(#6f8c2b052c)"><path style=" stroke:none;fill-rule:nonzero;fill:#d3d2af;fill-opacity:1;" d="M 139.269531 187.5 L 139.269531 198.574219 C 164.042969 208.570312 176.808594 227.265625 176.808594 227.265625 C 168.070312 201.414062 139.269531 187.5 139.269531 187.5 Z M 139.269531 187.5 "/></g><g clip-rule="nonzero" clip-path="url(#ecc38b0c63)"><path style=" stroke:none;fill-rule:nonzero;fill:#d3d2af;fill-opacity:1;" d="M 267.773438 206.628906 C 191.046875 214.25 182.34375 240.75 182.34375 240.75 C 206.039062 218.132812 260.367188 213.566406 260.367188 213.566406 L 250.371094 240.75 Z M 267.773438 206.628906 "/></g><path style=" stroke:none;fill-rule:nonzero;fill:#d3d2af;fill-opacity:1;" d="M 239.871094 194.117188 C 239.871094 194.117188 195.109375 206.160156 179.394531 233.882812 C 179.394531 233.882812 200.898438 211.589844 239.871094 206.59375 Z M 239.871094 194.117188 "/><g clip-rule="nonzero" clip-path="url(#0d1c33c47b)"><path style=" stroke:none;fill-rule:nonzero;fill:#d3d2af;fill-opacity:1;" d="M 216.933594 198.574219 L 216.933594 187.5 C 216.933594 187.5 188.132812 201.414062 179.394531 227.265625 C 179.394531 227.265625 192.160156 208.570312 216.933594 198.574219 Z M 216.933594 198.574219 "/></g><g clip-rule="nonzero" clip-path="url(#360b94648a)"><g clip-rule="nonzero" clip-path="url(#d945440aff)"><g clip-rule="nonzero" clip-path="url(#68adddbd51)"><path style=" stroke:none;fill-rule:nonzero;fill:#d3d2af;fill-opacity:1;" d="M 57.019531 178.773438 C 53.984375 256.066406 114.183594 321.175781 191.472656 324.207031 C 229.140625 325.683594 263.886719 312.117188 289.992188 288.898438 C 262.304688 317.261719 223.183594 334.253906 180.460938 332.574219 C 100.398438 329.4375 38.042969 261.988281 41.183594 181.925781 C 44.324219 101.863281 111.769531 39.507812 191.832031 42.648438 C 199.632812 42.953125 207.261719 43.890625 214.6875 45.367188 C 210.65625 44.863281 206.582031 44.484375 202.449219 44.324219 C 125.164062 41.289062 60.050781 101.488281 57.019531 178.773438 "/></g></g></g><g clip-rule="nonzero" clip-path="url(#10cdce6877)"><g clip-rule="nonzero" clip-path="url(#de0c5211d2)"><g clip-rule="nonzero" clip-path="url(#69440ec869)"><path style=" stroke:none;fill-rule:nonzero;fill:#d3d2af;fill-opacity:1;" d="M 282.292969 272.144531 C 291.695312 271.867188 297.203125 271.484375 300.617188 269.347656 C 299.527344 266.84375 297.292969 263.902344 293.910156 259.6875 C 297.839844 263.398438 300.601562 265.851562 303.007812 267.136719 C 305.410156 263.894531 306.21875 258.433594 307.238281 249.085938 C 307.519531 258.484375 307.898438 263.992188 310.039062 267.410156 C 312.535156 266.320312 315.480469 264.089844 319.695312 260.699219 C 315.988281 264.632812 313.535156 267.394531 312.25 269.804688 C 315.488281 272.199219 320.945312 273.015625 330.296875 274.027344 C 320.894531 274.308594 315.390625 274.6875 311.976562 276.828125 C 313.066406 279.332031 315.296875 282.277344 318.683594 286.488281 C 314.746094 282.78125 311.988281 280.328125 309.582031 279.046875 C 307.179688 282.28125 306.371094 287.742188 305.355469 297.09375 C 305.074219 287.691406 304.691406 282.183594 302.550781 278.769531 C 300.050781 279.859375 297.109375 282.089844 292.898438 285.476562 C 296.601562 281.542969 299.058594 278.78125 300.339844 276.371094 C 297.105469 273.972656 291.644531 273.160156 282.292969 272.144531 "/></g></g></g><g clip-rule="nonzero" clip-path="url(#4655e84afd)"><g clip-rule="nonzero" clip-path="url(#25502ccc29)"><g clip-rule="nonzero" clip-path="url(#f81a555b34)"><path style=" stroke:none;fill-rule:nonzero;fill:#d3d2af;fill-opacity:1;" d="M 287.921875 228.050781 C 291.867188 227.933594 294.183594 227.769531 295.609375 226.875 C 295.15625 225.828125 294.21875 224.59375 292.800781 222.820312 C 294.445312 224.375 295.609375 225.40625 296.617188 225.949219 C 297.625 224.589844 297.964844 222.292969 298.390625 218.375 C 298.507812 222.316406 298.667969 224.628906 299.566406 226.0625 C 300.613281 225.601562 301.847656 224.667969 303.617188 223.246094 C 302.0625 224.898438 301.035156 226.058594 300.492188 227.066406 C 301.851562 228.070312 304.144531 228.417969 308.070312 228.839844 C 304.125 228.957031 301.8125 229.117188 300.378906 230.011719 C 300.839844 231.066406 301.773438 232.300781 303.195312 234.066406 C 301.542969 232.511719 300.382812 231.480469 299.375 230.945312 C 298.367188 232.304688 298.027344 234.589844 297.601562 238.519531 C 297.484375 234.570312 297.320312 232.265625 296.425781 230.828125 C 295.378906 231.285156 294.140625 232.222656 292.375 233.640625 C 293.929688 231.992188 294.960938 230.835938 295.496094 229.820312 C 294.140625 228.816406 291.847656 228.476562 287.921875 228.050781 "/></g></g></g><g clip-rule="nonzero" clip-path="url(#b55714881b)"><g clip-rule="nonzero" clip-path="url(#8c8f4a15d7)"><g clip-rule="nonzero" clip-path="url(#3d66ab1145)"><path style=" stroke:none;fill-rule:nonzero;fill:#d3d2af;fill-opacity:1;" d="M 254.703125 248.546875 C 260.199219 248.378906 263.417969 248.152344 265.410156 246.90625 C 264.777344 245.445312 263.472656 243.726562 261.492188 241.261719 C 263.789062 243.429688 265.40625 244.863281 266.8125 245.613281 C 268.214844 243.722656 268.6875 240.53125 269.28125 235.066406 C 269.441406 240.5625 269.667969 243.777344 270.921875 245.773438 C 272.378906 245.136719 274.097656 243.832031 276.558594 241.851562 C 274.394531 244.152344 272.960938 245.765625 272.210938 247.171875 C 274.105469 248.574219 277.292969 249.046875 282.757812 249.644531 C 277.265625 249.804688 274.046875 250.027344 272.046875 251.28125 C 272.6875 252.742188 273.992188 254.460938 275.96875 256.921875 C 273.671875 254.757812 272.058594 253.320312 270.652344 252.574219 C 269.246094 254.464844 268.773438 257.65625 268.179688 263.117188 C 268.015625 257.625 267.796875 254.40625 266.542969 252.414062 C 265.085938 253.046875 263.359375 254.351562 260.898438 256.332031 C 263.070312 254.03125 264.503906 252.421875 265.25 251.011719 C 263.359375 249.609375 260.171875 249.132812 254.703125 248.546875 "/></g></g></g></g></svg>