<svg xmlns="http://www.w3.org/2000/svg" xmlns:xlink="http://www.w3.org/1999/xlink" width="500" zoomAndPan="magnify" viewBox="0 0 375 374.999991" height="500" preserveAspectRatio="xMidYMid meet" version="1.2"><defs><clipPath id="c4d131674d"><path d="M 182.625 107.546875 L 242.90625 107.546875 L 242.90625 221.917969 L 182.625 221.917969 Z M 182.625 107.546875 "/></clipPath><clipPath id="bab43e5b1c"><path d="M 205 105.152344 L 222 105.152344 L 222 129 L 205 129 Z M 205 105.152344 "/></clipPath><clipPath id="0c10e95e96"><path d="M 202 219 L 205 219 L 205 222.902344 L 202 222.902344 Z M 202 219 "/></clipPath><clipPath id="3e8a7ce2f7"><path d="M 113.496094 223 L 200 223 L 200 257.601562 L 113.496094 257.601562 Z M 113.496094 223 "/></clipPath><clipPath id="5d9da70f06"><path d="M 164 204.351562 L 203 204.351562 L 203 245 L 164 245 Z M 164 204.351562 "/></clipPath><clipPath id="0aea21a29a"><path d="M 207 223 L 293.496094 223 L 293.496094 257.601562 L 207 257.601562 Z M 207 223 "/></clipPath><clipPath id="c03b6fd34f"><path d="M 204 204.351562 L 243 204.351562 L 243 245 L 204 245 Z M 204 204.351562 "/></clipPath><clipPath id="4242d19154"><path d="M 66 59 L 316 59 L 316 350 L 66 350 Z M 66 59 "/></clipPath><clipPath id="fc64db1847"><path d="M 72.15625 53.402344 L 364.433594 64.867188 L 353.027344 355.644531 L 60.75 344.179688 Z M 72.15625 53.402344 "/></clipPath><clipPath id="6447ac8735"><path d="M 60.765625 343.816406 L 353.042969 355.28125 L 364.445312 64.503906 L 72.171875 53.039062 Z M 60.765625 343.816406 "/></clipPath><clipPath id="202b898b0a"><path d="M 307 265 L 356 265 L 356 314 L 307 314 Z M 307 265 "/></clipPath><clipPath id="9316a474ac"><path d="M 72.15625 53.402344 L 364.433594 64.867188 L 353.027344 355.644531 L 60.75 344.179688 Z M 72.15625 53.402344 "/></clipPath><clipPath id="de54154214"><path d="M 60.765625 343.816406 L 353.042969 355.28125 L 364.445312 64.503906 L 72.171875 53.039062 Z M 60.765625 343.816406 "/></clipPath><clipPath id="3515ebecb8"><path d="M 313 235 L 334 235 L 334 256 L 313 256 Z M 313 235 "/></clipPath><clipPath id="f01af3f8d8"><path d="M 72.15625 53.402344 L 364.433594 64.867188 L 353.027344 355.644531 L 60.75 344.179688 Z M 72.15625 53.402344 "/></clipPath><clipPath id="ede23e7010"><path d="M 60.765625 343.816406 L 353.042969 355.28125 L 364.445312 64.503906 L 72.171875 53.039062 Z M 60.765625 343.816406 "/></clipPath><clipPath id="ff7d51d043"><path d="M 279 251 L 309 251 L 309 280 L 279 280 Z M 279 251 "/></clipPath><clipPath id="ba2c2410cb"><path d="M 72.15625 53.402344 L 364.433594 64.867188 L 353.027344 355.644531 L 60.75 344.179688 Z M 72.15625 53.402344 "/></clipPath><clipPath id="42f43e7e0a"><path d="M 60.765625 343.816406 L 353.042969 355.28125 L 364.445312 64.503906 L 72.171875 53.039062 Z M 60.765625 343.816406 "/></clipPath></defs><g id="fb358d262f"><g clip-rule="nonzero" clip-path="url(#c4d131674d)"><path style=" stroke:none;fill-rule:nonzero;fill:#d3d2af;fill-opacity:1;" d="M 207.105469 220.785156 C 200.566406 214.542969 215.445312 209.625 219.039062 206.566406 C 222.496094 203.621094 222.738281 199.421875 219.140625 196.558594 C 214.261719 192.675781 207.875 193.34375 202.09375 192.878906 C 200.011719 192.710938 197.644531 192.382812 196.726562 190.179688 C 195.882812 188.160156 197.175781 185.828125 198.253906 184.195312 C 200.660156 180.558594 204.507812 179.019531 208.75 179.207031 C 214.914062 179.484375 220.289062 183.410156 226.441406 183.921875 C 232.457031 184.425781 237.398438 179.726562 240.429688 175.027344 C 243.195312 170.742188 243.757812 165.371094 241.53125 160.761719 C 239.113281 155.753906 233.5 153.515625 228.316406 152.871094 C 220.765625 151.933594 213.238281 155.710938 206.191406 157.796875 C 199.246094 159.847656 190.417969 160.03125 185.875 153.375 C 182.757812 148.804688 183.667969 142.589844 186.027344 137.9375 C 189.332031 131.421875 196.246094 127.769531 203.449219 128.113281 C 210.324219 128.441406 216.566406 131.90625 223.570312 131.289062 C 228.660156 130.84375 234.160156 127.847656 235.664062 122.699219 C 236.886719 118.5 233.816406 114.460938 230.035156 112.976562 C 227.332031 111.917969 224.917969 111.753906 222.078125 112.203125 C 220.050781 112.527344 218.070312 112.964844 216.019531 112.5625 C 213.804688 112.128906 213.28125 108.980469 215.675781 108.675781 C 216.726562 108.542969 217.746094 108.820312 218.695312 109.21875 C 219.445312 109.53125 219.769531 108.308594 219.03125 108 C 216.582031 106.976562 209.441406 108.019531 212.960938 111.941406 C 214.835938 114.027344 217.074219 114.164062 219.761719 113.847656 C 223.820312 113.367188 227.027344 112.714844 230.820312 114.765625 C 233.613281 116.273438 235.097656 119.265625 234.445312 122.363281 C 233.625 126.246094 229.515625 128.492188 226.0625 129.539062 C 218.84375 131.734375 211.417969 127.78125 204.296875 126.925781 C 192.984375 125.566406 183.074219 134.785156 182.636719 145.925781 C 182.46875 150.214844 184.296875 154.722656 187.835938 157.269531 C 193.097656 161.050781 199.570312 160.824219 205.585938 159.273438 C 213.925781 157.125 221.871094 152.722656 230.722656 154.53125 C 237.734375 155.960938 242.703125 161.875 241.453125 169.125 C 240.226562 176.226562 233.132812 183.21875 225.75 182.605469 C 219.597656 182.089844 214.273438 178.195312 208.011719 177.914062 C 202.371094 177.660156 197.585938 181.386719 195.625 186.546875 C 193.382812 192.445312 199.226562 193.984375 203.65625 194.25 C 206.9375 194.445312 210.050781 194.316406 213.257812 195.1875 C 216.476562 196.0625 221.453125 198.277344 220.441406 202.429688 C 219.59375 205.90625 215.257812 207.664062 212.472656 209.179688 C 209.875 210.597656 207.230469 212.085938 205.28125 214.359375 C 203.117188 216.875 204.023438 219.589844 206.210938 221.679688 C 206.800781 222.238281 207.691406 221.347656 207.105469 220.785156 "/></g><path style=" stroke:none;fill-rule:nonzero;fill:#f4af00;fill-opacity:1;" d="M 194.824219 143.625 C 194.546875 147.414062 197.597656 149.46875 200.894531 150.464844 C 201.425781 150.621094 201.695312 149.882812 201.257812 149.597656 C 199.734375 148.605469 198.074219 147.777344 196.9375 146.304688 C 195.175781 144.019531 197.328125 140.582031 198.957031 138.914062 C 202.773438 135.003906 210.8125 136.132812 215.746094 136.117188 C 222.574219 136.09375 232.414062 135.199219 236.664062 128.960938 C 236.910156 128.597656 236.375 128.226562 236.074219 128.507812 C 226.382812 137.539062 213.273438 132.398438 201.796875 135.605469 C 198.328125 136.574219 195.101562 139.914062 194.824219 143.625 "/><path style=" stroke:none;fill-rule:nonzero;fill:#f4af00;fill-opacity:1;" d="M 205.21875 165.589844 C 209.460938 165.492188 213.25 164.484375 217.367188 163.523438 C 220.535156 162.78125 228.277344 163.960938 226.046875 168.984375 C 225.0625 171.199219 222.515625 172.578125 220.570312 173.816406 C 220.167969 174.074219 220.421875 174.71875 220.898438 174.59375 C 224.210938 173.699219 227.980469 170.816406 227.871094 167.0625 C 227.722656 162.019531 220.496094 161.5 217 162.195312 C 214.09375 162.769531 211.375 163.796875 208.40625 164.097656 C 206.148438 164.324219 203.875 164.367188 201.609375 164.316406 C 196.6875 164.203125 189.667969 163.5625 186.894531 158.824219 C 186.601562 158.332031 185.898438 158.765625 186.136719 159.269531 C 189.15625 165.679688 199.25 165.71875 205.21875 165.589844 "/><path style=" stroke:none;fill-rule:nonzero;fill:#f4af00;fill-opacity:1;" d="M 233.082031 184.953125 C 227.847656 185.65625 223.171875 186.324219 218.003906 184.726562 C 215.523438 183.957031 213.023438 183.335938 210.4375 183.046875 C 205.921875 182.542969 200.480469 184.140625 200.378906 189.53125 C 200.371094 189.9375 201.011719 190.160156 201.1875 189.75 C 202.277344 187.1875 203.328125 185.371094 206.175781 184.597656 C 208.765625 183.890625 211.636719 184.417969 214.195312 184.984375 C 216.890625 185.585938 219.453125 186.515625 222.207031 186.882812 C 225.816406 187.363281 229.859375 186.886719 233.289062 185.703125 C 233.777344 185.535156 233.570312 184.886719 233.082031 184.953125 "/><path style=" stroke:none;fill-rule:nonzero;fill:#f4af00;fill-opacity:1;" d="M 204.214844 200.335938 C 200.15625 199.246094 196.507812 201.25 193.238281 197.609375 C 190.429688 194.492188 189.941406 189.488281 192.714844 186.273438 C 193.09375 185.832031 192.53125 185.289062 192.089844 185.644531 C 188.144531 188.808594 189.5625 194.878906 192.21875 198.394531 C 193.550781 200.160156 195.636719 201.457031 197.878906 201.570312 C 200.445312 201.699219 203.09375 201.1875 205.5 202.34375 C 209.332031 204.183594 206.484375 207.480469 204.625 209.324219 C 204.167969 209.777344 204.746094 210.476562 205.292969 210.191406 C 210.394531 207.539062 209.660156 201.792969 204.214844 200.335938 "/><g clip-rule="nonzero" clip-path="url(#bab43e5b1c)"><path style=" stroke:none;fill-rule:nonzero;fill:#f4af00;fill-opacity:1;" d="M 212.847656 118.859375 C 214.71875 119.265625 216.605469 119.324219 218.390625 120.085938 C 223.5 122.261719 217.921875 126.6875 215.550781 128.03125 C 215.175781 128.242188 215.429688 128.820312 215.835938 128.714844 C 220.457031 127.53125 224.289062 122.25 218.992188 119.054688 C 216.097656 117.308594 212.347656 118.042969 209.34375 116.234375 C 203.621094 112.777344 209.234375 107.023438 213.28125 105.671875 C 213.578125 105.570312 213.457031 105.152344 213.152344 105.203125 C 208.679688 105.96875 204.46875 110.039062 206.5 114.773438 C 207.53125 117.171875 210.507812 118.355469 212.847656 118.859375 "/></g><path style=" stroke:none;fill-rule:nonzero;fill:#f4af00;fill-opacity:1;" d="M 205.160156 155.929688 C 205.402344 155.804688 205.300781 155.367188 205.015625 155.398438 C 199.828125 155.984375 195.941406 154.390625 193.363281 149.65625 C 190.84375 145.027344 191.453125 139.171875 195.589844 135.75 C 195.898438 135.496094 195.496094 134.976562 195.167969 135.199219 C 185.625 141.660156 194.101562 161.65625 205.160156 155.929688 "/><path style=" stroke:none;fill-rule:nonzero;fill:#f4af00;fill-opacity:1;" d="M 190.902344 152.722656 C 191.355469 153.066406 191.789062 152.367188 191.472656 151.988281 C 189.992188 150.234375 188.703125 148.554688 187.957031 146.355469 C 187.023438 143.605469 188.03125 141.199219 189.140625 138.714844 C 189.195312 138.589844 189.0625 138.488281 188.953125 138.570312 C 184.144531 142.320312 186.785156 149.625 190.902344 152.722656 "/><path style=" stroke:none;fill-rule:nonzero;fill:#f4af00;fill-opacity:1;" d="M 210.566406 112.535156 C 210.507812 112.421875 210.347656 112.519531 210.394531 112.636719 C 211.640625 115.542969 215.625 116.089844 218.359375 116.859375 C 220.386719 117.425781 222.480469 117.921875 224.320312 118.976562 C 226.652344 120.316406 225.429688 122.109375 224.8125 124.042969 C 224.714844 124.355469 225.117188 124.707031 225.398438 124.492188 C 228.664062 122.03125 226.75 118.660156 223.671875 117.402344 C 221.417969 116.476562 219.023438 115.996094 216.660156 115.421875 C 214.878906 114.984375 211.496094 114.363281 210.566406 112.535156 "/><path style=" stroke:none;fill-rule:nonzero;fill:#f4af00;fill-opacity:1;" d="M 223.671875 126.824219 C 223.820312 126.683594 223.664062 126.378906 223.460938 126.460938 C 222.84375 126.710938 222.21875 126.960938 221.59375 127.1875 C 221.484375 127.226562 221.476562 127.382812 221.59375 127.417969 C 222.414062 127.652344 223.0625 127.386719 223.671875 126.824219 "/><path style=" stroke:none;fill-rule:nonzero;fill:#f4af00;fill-opacity:1;" d="M 224.277344 115.664062 C 224.859375 115.941406 225.53125 115.941406 226.144531 116.148438 C 226.808594 116.371094 227.433594 116.835938 228.007812 117.230469 C 228.246094 117.394531 228.472656 117.085938 228.371094 116.867188 C 227.761719 115.589844 225.515625 114.425781 224.246094 115.417969 C 224.167969 115.476562 224.191406 115.625 224.277344 115.664062 "/><path style=" stroke:none;fill-rule:nonzero;fill:#f4af00;fill-opacity:1;" d="M 228.351562 123.792969 C 227.398438 125.265625 225.96875 126.28125 224.480469 127.152344 C 224.285156 127.269531 224.457031 127.539062 224.65625 127.453125 C 226.378906 126.695312 228.132812 125.867188 229.300781 124.347656 C 230.453125 122.851562 230.519531 120.734375 230.003906 118.996094 C 229.875 118.570312 229.179688 118.636719 229.210938 119.101562 C 229.3125 120.800781 229.300781 122.320312 228.351562 123.792969 "/><path style=" stroke:none;fill-rule:nonzero;fill:#f4af00;fill-opacity:1;" d="M 189.507812 136.9375 C 189.941406 136.84375 190.203125 136.585938 190.445312 136.214844 C 190.542969 136.0625 190.355469 135.921875 190.214844 135.988281 C 189.796875 136.183594 189.453125 136.25 189.28125 136.714844 C 189.230469 136.851562 189.382812 136.964844 189.507812 136.9375 "/><path style=" stroke:none;fill-rule:nonzero;fill:#f4af00;fill-opacity:1;" d="M 193.222656 134.234375 C 196.160156 132.292969 198.699219 131.191406 202.316406 131.347656 C 204.035156 131.421875 205.644531 132.097656 207.34375 132.242188 C 209.164062 132.398438 210.867188 131.964844 212.667969 131.691406 C 212.796875 131.671875 212.761719 131.46875 212.636719 131.46875 C 210.023438 131.476562 207.785156 131.484375 205.234375 130.726562 C 203.453125 130.199219 201.59375 130.109375 199.753906 130.222656 C 197.152344 130.386719 194.105469 131.402344 192.742188 133.757812 C 192.574219 134.050781 192.921875 134.433594 193.222656 134.234375 "/><path style=" stroke:none;fill-rule:nonzero;fill:#f4af00;fill-opacity:1;" d="M 224.992188 175.941406 C 224.660156 176.167969 224.863281 176.804688 225.285156 176.636719 C 231.792969 174.027344 235.453125 168.585938 230.742188 162.390625 C 228.789062 159.828125 225.722656 158.546875 222.570312 158.484375 C 220.5 158.441406 218.328125 159.285156 216.371094 159.851562 C 213.417969 160.710938 210.351562 161.089844 207.296875 161.425781 C 207.082031 161.449219 207.070312 161.777344 207.296875 161.769531 C 210.175781 161.664062 212.804688 161.652344 215.625 160.988281 C 219.464844 160.089844 222.910156 158.753906 226.746094 160.542969 C 229.894531 162.007812 232.515625 166.042969 231.730469 169.519531 C 231.042969 172.578125 227.335938 174.339844 224.992188 175.941406 "/><path style=" stroke:none;fill-rule:nonzero;fill:#f4af00;fill-opacity:1;" d="M 222.621094 177.554688 C 222.839844 177.507812 222.769531 177.207031 222.570312 177.1875 C 217.355469 176.726562 212.402344 175.035156 207.230469 174.519531 C 203.621094 174.160156 198.890625 175.609375 196.902344 178.839844 C 196.734375 179.113281 197.144531 179.441406 197.347656 179.1875 C 204.363281 170.515625 214.167969 179.335938 222.621094 177.554688 "/><path style=" stroke:none;fill-rule:nonzero;fill:#f4af00;fill-opacity:1;" d="M 195.304688 182.199219 C 195.519531 181.453125 195.882812 180.882812 196.304688 180.242188 C 196.484375 179.972656 196.144531 179.691406 195.886719 179.824219 C 195.074219 180.246094 194.769531 181.160156 194.566406 181.996094 C 194.449219 182.476562 195.171875 182.679688 195.304688 182.199219 "/><path style=" stroke:none;fill-rule:nonzero;fill:#f4af00;fill-opacity:1;" d="M 199.859375 161.765625 C 199.425781 161.808594 199.429688 162.390625 199.859375 162.4375 C 201.21875 162.585938 202.699219 162.761719 204.039062 162.417969 C 204.257812 162.363281 204.257812 162.039062 204.039062 161.984375 C 202.710938 161.628906 201.222656 161.628906 199.859375 161.765625 "/><path style=" stroke:none;fill-rule:nonzero;fill:#f4af00;fill-opacity:1;" d="M 235.773438 162.90625 C 235.523438 162.558594 234.929688 162.753906 235.054688 163.210938 C 236.207031 167.378906 235.917969 170.640625 233.503906 174.332031 C 230.9375 178.261719 226.800781 180.3125 222.167969 179.875 C 221.957031 179.855469 221.882812 180.175781 222.0625 180.273438 C 226.113281 182.441406 231.3125 178.683594 233.824219 175.707031 C 236.582031 172.429688 238.527344 166.722656 235.773438 162.90625 "/><path style=" stroke:none;fill-rule:nonzero;fill:#f4af00;fill-opacity:1;" d="M 224.839844 156.886719 C 225.050781 156.835938 225.058594 156.507812 224.839844 156.460938 C 224.074219 156.285156 223.269531 156.355469 222.496094 156.507812 C 222.238281 156.558594 222.230469 156.996094 222.496094 157.039062 C 223.277344 157.171875 224.082031 157.082031 224.839844 156.886719 "/><path style=" stroke:none;fill-rule:nonzero;fill:#f4af00;fill-opacity:1;" d="M 233.605469 160.316406 C 232.847656 158.203125 229.382812 155.824219 227.109375 156.570312 C 226.8125 156.667969 226.808594 157.082031 227.109375 157.179688 C 228.335938 157.566406 229.414062 157.671875 230.515625 158.417969 C 231.472656 159.0625 232.136719 160.140625 233.175781 160.644531 C 233.386719 160.742188 233.699219 160.578125 233.605469 160.316406 "/><path style=" stroke:none;fill-rule:nonzero;fill:#f4af00;fill-opacity:1;" d="M 192.707031 188.570312 C 191.941406 191.023438 192.179688 193.28125 193.921875 195.238281 C 195.386719 196.886719 198.367188 198.125 200.542969 197.570312 C 200.851562 197.492188 200.820312 197.074219 200.542969 196.980469 C 198.523438 196.289062 196.574219 196.300781 194.789062 194.921875 C 192.855469 193.425781 192.574219 190.925781 193.144531 188.691406 C 193.21875 188.40625 192.792969 188.292969 192.707031 188.570312 "/><path style=" stroke:none;fill-rule:nonzero;fill:#f4af00;fill-opacity:1;" d="M 202.574219 195.945312 C 202.152344 195.96875 202.15625 196.5625 202.574219 196.59375 C 207.167969 196.933594 214.296875 197.238281 214.292969 203.304688 C 214.292969 203.789062 215.054688 203.914062 215.15625 203.421875 C 216.527344 196.816406 207.101562 195.660156 202.574219 195.945312 "/><path style=" stroke:none;fill-rule:nonzero;fill:#f4af00;fill-opacity:1;" d="M 210.347656 199.957031 C 208.800781 198.648438 206.484375 197.980469 204.484375 198.242188 C 204.050781 198.296875 204.042969 198.875 204.484375 198.921875 C 206.058594 199.089844 207.585938 199.53125 208.957031 200.324219 C 209.707031 200.757812 210.386719 201.398438 210.722656 202.210938 C 211.042969 202.984375 210.816406 203.816406 210.726562 204.609375 C 210.675781 205.039062 211.25 205.078125 211.453125 204.804688 C 212.660156 203.167969 211.730469 201.128906 210.347656 199.957031 "/><path style=" stroke:none;fill-rule:nonzero;fill:#f4af00;fill-opacity:1;" d="M 203.960938 211.523438 C 204.503906 211.078125 203.730469 210.324219 203.195312 210.757812 C 201.523438 212.113281 199.128906 216.757812 201.648438 218.382812 C 201.832031 218.503906 202.054688 218.308594 202.003906 218.113281 C 201.398438 215.816406 202.066406 213.097656 203.960938 211.523438 "/><g clip-rule="nonzero" clip-path="url(#0c10e95e96)"><path style=" stroke:none;fill-rule:nonzero;fill:#f4af00;fill-opacity:1;" d="M 203.308594 220.132812 C 203.03125 219.648438 202.203125 219.972656 202.390625 220.519531 C 202.664062 221.3125 203.257812 222.445312 204.167969 222.613281 C 204.464844 222.667969 204.816406 222.417969 204.699219 222.082031 C 204.445312 221.347656 203.699219 220.8125 203.308594 220.132812 "/></g><g clip-rule="nonzero" clip-path="url(#3e8a7ce2f7)"><path style=" stroke:none;fill-rule:nonzero;fill:#d3d2af;fill-opacity:1;" d="M 113.699219 223.480469 L 131.101562 257.601562 L 121.105469 230.417969 C 121.105469 230.417969 175.433594 234.984375 199.128906 257.601562 C 199.128906 257.601562 190.425781 231.101562 113.699219 223.480469 Z M 113.699219 223.480469 "/></g><path style=" stroke:none;fill-rule:nonzero;fill:#d3d2af;fill-opacity:1;" d="M 141.636719 210.96875 L 141.636719 223.480469 C 180.609375 228.476562 202.113281 250.769531 202.113281 250.769531 C 186.398438 223.046875 141.636719 210.96875 141.636719 210.96875 Z M 141.636719 210.96875 "/><g clip-rule="nonzero" clip-path="url(#5d9da70f06)"><path style=" stroke:none;fill-rule:nonzero;fill:#d3d2af;fill-opacity:1;" d="M 164.539062 204.351562 L 164.539062 215.425781 C 189.3125 225.421875 202.078125 244.117188 202.078125 244.117188 C 193.339844 218.265625 164.539062 204.351562 164.539062 204.351562 Z M 164.539062 204.351562 "/></g><g clip-rule="nonzero" clip-path="url(#0aea21a29a)"><path style=" stroke:none;fill-rule:nonzero;fill:#d3d2af;fill-opacity:1;" d="M 293.042969 223.480469 C 216.316406 231.101562 207.613281 257.601562 207.613281 257.601562 C 231.308594 234.984375 285.636719 230.417969 285.636719 230.417969 L 275.640625 257.601562 Z M 293.042969 223.480469 "/></g><path style=" stroke:none;fill-rule:nonzero;fill:#d3d2af;fill-opacity:1;" d="M 265.140625 210.96875 C 265.140625 210.96875 220.378906 223.011719 204.664062 250.734375 C 204.664062 250.734375 226.167969 228.441406 265.140625 223.445312 Z M 265.140625 210.96875 "/><g clip-rule="nonzero" clip-path="url(#c03b6fd34f)"><path style=" stroke:none;fill-rule:nonzero;fill:#d3d2af;fill-opacity:1;" d="M 242.203125 215.425781 L 242.203125 204.351562 C 242.203125 204.351562 213.402344 218.265625 204.664062 244.117188 C 204.664062 244.117188 217.429688 225.421875 242.203125 215.425781 Z M 242.203125 215.425781 "/></g><g clip-rule="nonzero" clip-path="url(#4242d19154)"><g clip-rule="nonzero" clip-path="url(#fc64db1847)"><g clip-rule="nonzero" clip-path="url(#6447ac8735)"><path style=" stroke:none;fill-rule:nonzero;fill:#d3d2af;fill-opacity:1;" d="M 82.289062 195.625 C 79.253906 272.917969 139.453125 338.027344 216.742188 341.058594 C 254.410156 342.535156 289.15625 328.96875 315.261719 305.75 C 287.574219 334.113281 248.453125 351.105469 205.730469 349.425781 C 125.667969 346.289062 63.3125 278.839844 66.453125 198.777344 C 69.59375 118.714844 137.039062 56.359375 217.101562 59.5 C 224.902344 59.804688 232.53125 60.742188 239.957031 62.21875 C 235.925781 61.714844 231.851562 61.335938 227.71875 61.175781 C 150.433594 58.140625 85.320312 118.339844 82.289062 195.625 "/></g></g></g><g clip-rule="nonzero" clip-path="url(#202b898b0a)"><g clip-rule="nonzero" clip-path="url(#9316a474ac)"><g clip-rule="nonzero" clip-path="url(#de54154214)"><path style=" stroke:none;fill-rule:nonzero;fill:#d3d2af;fill-opacity:1;" d="M 307.5625 288.996094 C 316.964844 288.71875 322.472656 288.335938 325.886719 286.199219 C 324.796875 283.695312 322.5625 280.753906 319.179688 276.539062 C 323.109375 280.25 325.871094 282.703125 328.277344 283.988281 C 330.679688 280.746094 331.488281 275.285156 332.507812 265.9375 C 332.789062 275.335938 333.167969 280.84375 335.308594 284.261719 C 337.804688 283.171875 340.75 280.941406 344.964844 277.550781 C 341.257812 281.484375 338.804688 284.246094 337.519531 286.65625 C 340.757812 289.050781 346.214844 289.867188 355.566406 290.878906 C 346.164062 291.160156 340.660156 291.539062 337.246094 293.679688 C 338.335938 296.183594 340.566406 299.128906 343.953125 303.339844 C 340.015625 299.632812 337.257812 297.179688 334.851562 295.898438 C 332.449219 299.132812 331.640625 304.59375 330.625 313.945312 C 330.34375 304.542969 329.960938 299.035156 327.820312 295.621094 C 325.324219 296.710938 322.378906 298.941406 318.167969 302.328125 C 321.871094 298.394531 324.328125 295.632812 325.609375 293.222656 C 322.375 290.824219 316.914062 290.011719 307.5625 288.996094 "/></g></g></g><g clip-rule="nonzero" clip-path="url(#3515ebecb8)"><g clip-rule="nonzero" clip-path="url(#f01af3f8d8)"><g clip-rule="nonzero" clip-path="url(#ede23e7010)"><path style=" stroke:none;fill-rule:nonzero;fill:#d3d2af;fill-opacity:1;" d="M 313.191406 244.902344 C 317.136719 244.785156 319.453125 244.621094 320.878906 243.726562 C 320.425781 242.679688 319.488281 241.445312 318.070312 239.671875 C 319.714844 241.226562 320.878906 242.257812 321.886719 242.800781 C 322.894531 241.441406 323.234375 239.144531 323.660156 235.226562 C 323.777344 239.167969 323.941406 241.480469 324.835938 242.914062 C 325.882812 242.453125 327.117188 241.519531 328.886719 240.097656 C 327.332031 241.75 326.304688 242.910156 325.761719 243.917969 C 327.121094 244.921875 329.414062 245.269531 333.339844 245.691406 C 329.394531 245.808594 327.082031 245.96875 325.648438 246.863281 C 326.109375 247.917969 327.042969 249.152344 328.464844 250.917969 C 326.8125 249.363281 325.652344 248.332031 324.644531 247.796875 C 323.636719 249.15625 323.296875 251.441406 322.871094 255.371094 C 322.753906 251.421875 322.589844 249.117188 321.695312 247.679688 C 320.648438 248.136719 319.410156 249.074219 317.644531 250.492188 C 319.199219 248.84375 320.230469 247.6875 320.765625 246.671875 C 319.410156 245.667969 317.117188 245.328125 313.191406 244.902344 "/></g></g></g><g clip-rule="nonzero" clip-path="url(#ff7d51d043)"><g clip-rule="nonzero" clip-path="url(#ba2c2410cb)"><g clip-rule="nonzero" clip-path="url(#42f43e7e0a)"><path style=" stroke:none;fill-rule:nonzero;fill:#d3d2af;fill-opacity:1;" d="M 279.972656 265.398438 C 285.46875 265.230469 288.6875 265.003906 290.679688 263.757812 C 290.046875 262.296875 288.742188 260.578125 286.761719 258.113281 C 289.058594 260.28125 290.675781 261.714844 292.082031 262.464844 C 293.488281 260.574219 293.957031 257.382812 294.550781 251.917969 C 294.710938 257.414062 294.9375 260.628906 296.191406 262.625 C 297.648438 261.988281 299.367188 260.683594 301.828125 258.703125 C 299.664062 261.003906 298.230469 262.617188 297.480469 264.023438 C 299.375 265.425781 302.5625 265.898438 308.027344 266.496094 C 302.535156 266.65625 299.316406 266.878906 297.316406 268.132812 C 297.957031 269.59375 299.261719 271.3125 301.238281 273.773438 C 298.941406 271.609375 297.328125 270.171875 295.921875 269.425781 C 294.515625 271.316406 294.042969 274.507812 293.449219 279.96875 C 293.285156 274.476562 293.066406 271.257812 291.8125 269.265625 C 290.355469 269.898438 288.628906 271.203125 286.167969 273.183594 C 288.339844 270.882812 289.773438 269.273438 290.519531 267.863281 C 288.628906 266.460938 285.441406 265.984375 279.972656 265.398438 "/></g></g></g><g style="fill:#d3d2af;fill-opacity:1;"><g transform="translate(63.212167, 246.357972)"><path style="stroke:none" d="M -7.40625 -34.671875 C -7.351562 -35.117188 -7.132812 -35.363281 -6.75 -35.40625 C -6.375 -35.445312 -6.179688 -35.453125 -6.171875 -35.421875 C -6.128906 -35.179688 -6.09375 -34.890625 -6.0625 -34.546875 C -6.039062 -34.203125 -6.007812 -33.890625 -5.96875 -33.609375 L -4.734375 -26.71875 C -4.660156 -26.28125 -4.550781 -25.773438 -4.40625 -25.203125 C -4.269531 -24.640625 -4.171875 -24.171875 -4.109375 -23.796875 C -4.109375 -23.765625 -4.195312 -23.707031 -4.375 -23.625 C -4.5625 -23.539062 -4.765625 -23.539062 -4.984375 -23.625 C -5.203125 -23.707031 -5.40625 -23.972656 -5.59375 -24.421875 C -5.988281 -25.546875 -6.398438 -26.285156 -6.828125 -26.640625 C -7.265625 -26.992188 -8.09375 -26.765625 -9.3125 -25.953125 L -13.53125 -23.21875 C -13.8125 -23.03125 -13.96875 -22.828125 -14 -22.609375 C -14.03125 -22.398438 -14.015625 -22.113281 -13.953125 -21.75 C -13.492188 -19.207031 -13.039062 -16.71875 -12.59375 -14.28125 C -12.144531 -11.851562 -11.710938 -9.351562 -11.296875 -6.78125 C -11.234375 -6.445312 -11.144531 -6.207031 -11.03125 -6.0625 C -10.925781 -5.925781 -10.722656 -5.800781 -10.421875 -5.6875 L -10.484375 -5.6875 L -5.515625 -4.5625 C -4.097656 -4.257812 -3.25 -4.359375 -2.96875 -4.859375 C -2.695312 -5.359375 -2.570312 -6.234375 -2.59375 -7.484375 C -2.570312 -8.015625 -2.472656 -8.363281 -2.296875 -8.53125 C -2.128906 -8.707031 -1.941406 -8.785156 -1.734375 -8.765625 C -1.535156 -8.742188 -1.429688 -8.695312 -1.421875 -8.625 C -1.359375 -8.257812 -1.285156 -7.757812 -1.203125 -7.125 C -1.128906 -6.5 -1.054688 -5.960938 -0.984375 -5.515625 L -0.390625 -2.1875 C -0.347656 -1.945312 -0.273438 -1.640625 -0.171875 -1.265625 C -0.0664062 -0.898438 0.00390625 -0.601562 0.046875 -0.375 C 0.0546875 -0.34375 -0.117188 -0.273438 -0.484375 -0.171875 C -0.859375 -0.0664062 -1.15625 -0.222656 -1.375 -0.640625 C -1.59375 -1.085938 -1.820312 -1.445312 -2.0625 -1.71875 C -2.300781 -2 -2.65625 -2.234375 -3.125 -2.421875 C -3.59375 -2.617188 -4.300781 -2.820312 -5.25 -3.03125 L -33.453125 -9.328125 C -34.066406 -9.429688 -34.648438 -9.378906 -35.203125 -9.171875 L -36.140625 -8.59375 C -36.460938 -8.40625 -36.65625 -8.242188 -36.71875 -8.109375 C -36.78125 -7.972656 -36.828125 -7.796875 -36.859375 -7.578125 C -36.910156 -7.117188 -37.085938 -6.894531 -37.390625 -6.90625 C -37.691406 -6.925781 -37.859375 -7.003906 -37.890625 -7.140625 L -38.4375 -10.21875 C -38.625 -11.3125 -38.640625 -12.0625 -38.484375 -12.46875 C -38.328125 -12.875 -37.835938 -13.320312 -37.015625 -13.8125 L -10.234375 -31.125 C -9.421875 -31.664062 -8.828125 -32.101562 -8.453125 -32.4375 C -8.078125 -32.78125 -7.820312 -33.125 -7.6875 -33.46875 C -7.5625 -33.8125 -7.46875 -34.210938 -7.40625 -34.671875 Z M -15.3125 -21.140625 C -15.363281 -21.441406 -15.488281 -21.597656 -15.6875 -21.609375 C -15.882812 -21.628906 -16.054688 -21.59375 -16.203125 -21.5 L -32.96875 -10.6875 L -13.578125 -6.375 C -12.960938 -6.25 -12.707031 -6.472656 -12.8125 -7.046875 Z M -15.3125 -21.140625 "/></g></g><g style="fill:#d3d2af;fill-opacity:1;"><g transform="translate(57.637825, 212.295895)"><path style="stroke:none" d="M -23.9375 -16.78125 C -23.9375 -17.84375 -23.707031 -18.800781 -23.25 -19.65625 C -22.800781 -20.507812 -22.207031 -21.148438 -21.46875 -21.578125 C -20.738281 -22.003906 -19.925781 -22.097656 -19.03125 -21.859375 L -13.359375 -20.1875 C -13.296875 -20.1875 -13.253906 -20.03125 -13.234375 -19.71875 C -13.210938 -19.40625 -13.289062 -19.101562 -13.46875 -18.8125 C -13.644531 -18.519531 -13.992188 -18.398438 -14.515625 -18.453125 C -16.285156 -18.691406 -17.632812 -18.691406 -18.5625 -18.453125 C -19.5 -18.222656 -20.144531 -17.796875 -20.5 -17.171875 C -20.863281 -16.554688 -21.046875 -15.800781 -21.046875 -14.90625 C -21.054688 -13.84375 -20.703125 -12.96875 -19.984375 -12.28125 C -19.265625 -11.59375 -18.359375 -11.070312 -17.265625 -10.71875 C -16.171875 -10.375 -15.019531 -10.128906 -13.8125 -9.984375 C -12.613281 -9.847656 -11.535156 -9.78125 -10.578125 -9.78125 L -4.8125 -9.75 C -3.570312 -9.75 -2.691406 -9.941406 -2.171875 -10.328125 C -1.648438 -10.722656 -1.359375 -11.265625 -1.296875 -11.953125 C -1.253906 -12.429688 -1.113281 -12.738281 -0.875 -12.875 C -0.632812 -13.007812 -0.398438 -13.039062 -0.171875 -12.96875 C 0.046875 -12.90625 0.15625 -12.804688 0.15625 -12.671875 C 0.0390625 -11.054688 -0.0078125 -9.351562 0 -7.5625 C 0.0078125 -5.78125 0.0507812 -3.976562 0.125 -2.15625 C 0.113281 -2.0625 0 -1.976562 -0.21875 -1.90625 C -0.445312 -1.832031 -0.675781 -1.863281 -0.90625 -2 C -1.144531 -2.144531 -1.285156 -2.457031 -1.328125 -2.9375 C -1.390625 -3.6875 -1.675781 -4.234375 -2.1875 -4.578125 C -2.707031 -4.929688 -3.601562 -5.109375 -4.875 -5.109375 L -17.59375 -5.15625 C -18.28125 -5.164062 -18.820312 -5.050781 -19.21875 -4.8125 C -19.613281 -4.570312 -19.847656 -4.109375 -19.921875 -3.421875 C -19.984375 -3.078125 -20.132812 -2.863281 -20.375 -2.78125 C -20.613281 -2.695312 -20.84375 -2.671875 -21.0625 -2.703125 C -21.289062 -2.734375 -21.40625 -2.75 -21.40625 -2.75 C -21.6875 -4.257812 -21.992188 -5.503906 -22.328125 -6.484375 C -22.660156 -7.472656 -23.101562 -8.347656 -23.65625 -9.109375 C -23.726562 -9.273438 -23.710938 -9.515625 -23.609375 -9.828125 C -23.503906 -10.140625 -23.363281 -10.296875 -23.1875 -10.296875 C -22.226562 -10.179688 -21.351562 -10.085938 -20.5625 -10.015625 C -19.78125 -9.953125 -18.941406 -9.878906 -18.046875 -9.796875 C -19.003906 -10.148438 -19.925781 -10.609375 -20.8125 -11.171875 C -21.707031 -11.742188 -22.453125 -12.484375 -23.046875 -13.390625 C -23.640625 -14.304688 -23.9375 -15.4375 -23.9375 -16.78125 Z M -23.9375 -16.78125 "/></g></g><g style="fill:#d3d2af;fill-opacity:1;"><g transform="translate(57.312923, 191.370875)"><path style="stroke:none" d="M -12.71875 -20.8125 C -8.71875 -21.382812 -5.238281 -22.351562 -2.28125 -23.71875 C 0.664062 -25.09375 3.320312 -26.859375 5.6875 -29.015625 C 5.925781 -28.984375 6.101562 -28.835938 6.21875 -28.578125 C 6.34375 -28.316406 6.359375 -28 6.265625 -27.625 C 4.835938 -25.3125 2.738281 -23.175781 -0.03125 -21.21875 C -2.8125 -19.257812 -6.085938 -17.71875 -9.859375 -16.59375 L -5.71875 -10.640625 L -3.234375 -10.234375 C -2.003906 -10.035156 -1.101562 -10.085938 -0.53125 -10.390625 C 0.03125 -10.703125 0.398438 -11.191406 0.578125 -11.859375 C 0.703125 -12.316406 0.890625 -12.59375 1.140625 -12.6875 C 1.398438 -12.789062 1.632812 -12.789062 1.84375 -12.6875 C 2.0625 -12.582031 2.160156 -12.460938 2.140625 -12.328125 C 1.765625 -10.742188 1.441406 -9.0625 1.171875 -7.28125 C 0.898438 -5.507812 0.648438 -3.71875 0.421875 -1.90625 C 0.410156 -1.800781 0.285156 -1.742188 0.046875 -1.734375 C -0.179688 -1.722656 -0.398438 -1.800781 -0.609375 -1.96875 C -0.828125 -2.144531 -0.914062 -2.476562 -0.875 -2.96875 C -0.820312 -3.71875 -1.019531 -4.300781 -1.46875 -4.71875 C -1.914062 -5.144531 -2.769531 -5.460938 -4.03125 -5.671875 L -28.46875 -9.625 C -29.863281 -9.851562 -30.78125 -9.890625 -31.21875 -9.734375 C -31.664062 -9.578125 -31.929688 -9.25 -32.015625 -8.75 C -32.140625 -8.394531 -32.328125 -8.179688 -32.578125 -8.109375 C -32.828125 -8.046875 -33.0625 -8.054688 -33.28125 -8.140625 C -33.5 -8.234375 -33.609375 -8.28125 -33.609375 -8.28125 C -33.578125 -9.726562 -33.695312 -10.992188 -33.96875 -12.078125 C -34.25 -13.171875 -34.644531 -14.175781 -35.15625 -15.09375 C -35.144531 -15.125 -35.078125 -15.300781 -34.953125 -15.625 C -34.828125 -15.957031 -34.53125 -16.054688 -34.0625 -15.921875 C -33.476562 -15.722656 -32.582031 -15.472656 -31.375 -15.171875 C -30.164062 -14.867188 -28.804688 -14.566406 -27.296875 -14.265625 C -25.785156 -13.960938 -24.25 -13.679688 -22.6875 -13.421875 L -7.15625 -10.875 L -16.40625 -22.515625 C -16.976562 -23.242188 -17.445312 -23.515625 -17.8125 -23.328125 C -18.175781 -23.140625 -18.421875 -22.765625 -18.546875 -22.203125 C -18.671875 -21.804688 -18.847656 -21.582031 -19.078125 -21.53125 C -19.316406 -21.476562 -19.539062 -21.507812 -19.75 -21.625 C -19.957031 -21.75 -20.035156 -21.875 -19.984375 -22 C -19.804688 -22.769531 -19.609375 -23.78125 -19.390625 -25.03125 C -19.171875 -26.289062 -18.960938 -27.554688 -18.765625 -28.828125 C -18.578125 -30.097656 -18.441406 -31.113281 -18.359375 -31.875 C -18.335938 -32.039062 -18.109375 -32.070312 -17.671875 -31.96875 C -17.242188 -31.863281 -17.054688 -31.539062 -17.109375 -31 C -17.285156 -29.695312 -17.28125 -28.632812 -17.09375 -27.8125 C -16.90625 -27 -16.550781 -26.203125 -16.03125 -25.421875 L -12.828125 -20.78125 C -12.796875 -20.769531 -12.78125 -20.769531 -12.78125 -20.78125 C -12.78125 -20.800781 -12.757812 -20.8125 -12.71875 -20.8125 Z M -12.71875 -20.8125 "/></g></g><g style="fill:#d3d2af;fill-opacity:1;"><g transform="translate(61.75194, 163.910565)"><path style="stroke:none" d="M 5.296875 -25 C 5.316406 -25.0625 5.421875 -25.210938 5.609375 -25.453125 C 5.804688 -25.691406 6.148438 -25.726562 6.640625 -25.5625 C 7.347656 -25.3125 7.84375 -24.753906 8.125 -23.890625 C 8.414062 -23.035156 8.390625 -22.117188 8.046875 -21.140625 C 7.179688 -18.671875 5.09375 -17.859375 1.78125 -18.703125 L 0.96875 -18.859375 C 2.539062 -17.628906 3.585938 -16.15625 4.109375 -14.4375 C 4.640625 -12.726562 4.617188 -11.0625 4.046875 -9.4375 C 3.410156 -7.625 2.535156 -6.25 1.421875 -5.3125 C 0.316406 -4.375 -0.878906 -3.8125 -2.171875 -3.625 C -3.472656 -3.445312 -4.691406 -3.550781 -5.828125 -3.9375 C -8.128906 -4.75 -9.691406 -6.207031 -10.515625 -8.3125 C -11.347656 -10.414062 -11.300781 -12.796875 -10.375 -15.453125 C -10.050781 -16.398438 -9.632812 -17.375 -9.125 -18.375 C -8.625 -19.382812 -8.160156 -20.25 -7.734375 -20.96875 L -8.9375 -21.296875 C -11.3125 -21.898438 -13.144531 -21.816406 -14.4375 -21.046875 C -15.738281 -20.285156 -16.691406 -19.046875 -17.296875 -17.328125 C -17.785156 -15.941406 -17.976562 -14.640625 -17.875 -13.421875 C -17.769531 -12.203125 -17.441406 -11.023438 -16.890625 -9.890625 C -16.890625 -9.890625 -16.976562 -9.8125 -17.15625 -9.65625 C -17.34375 -9.5 -17.566406 -9.425781 -17.828125 -9.4375 C -18.097656 -9.457031 -18.332031 -9.703125 -18.53125 -10.171875 C -19.113281 -11.253906 -19.4375 -12.601562 -19.5 -14.21875 C -19.5625 -15.84375 -19.269531 -17.59375 -18.625 -19.46875 C -18.0625 -21.0625 -17.300781 -22.421875 -16.34375 -23.546875 C -15.394531 -24.671875 -14.15625 -25.4375 -12.625 -25.84375 C -11.101562 -26.257812 -9.21875 -26.1875 -6.96875 -25.625 L 2.875 -23.203125 C 3.8125 -22.960938 4.488281 -22.894531 4.90625 -23 C 5.320312 -23.101562 5.585938 -23.316406 5.703125 -23.640625 C 5.898438 -24.222656 5.765625 -24.675781 5.296875 -25 Z M -2.65625 -19.734375 L -2.84375 -19.8125 L -5.96875 -20.578125 C -6.40625 -19.847656 -6.863281 -19.015625 -7.34375 -18.078125 C -7.832031 -17.140625 -8.175781 -16.378906 -8.375 -15.796875 C -9.71875 -11.972656 -8.738281 -9.484375 -5.4375 -8.328125 C -4.132812 -7.878906 -2.789062 -7.945312 -1.40625 -8.53125 C -0.0195312 -9.113281 0.992188 -10.332031 1.640625 -12.1875 C 1.960938 -13.101562 2.015625 -14.0625 1.796875 -15.0625 C 1.585938 -16.0625 1.097656 -16.984375 0.328125 -17.828125 C -0.429688 -18.671875 -1.425781 -19.304688 -2.65625 -19.734375 Z M -2.65625 -19.734375 "/></g></g><g style="fill:#d3d2af;fill-opacity:1;"><g transform="translate(69.928311, 139.605199)"><path style="stroke:none" d="M 10.84375 -26.703125 C 10.78125 -26.816406 10.847656 -26.992188 11.046875 -27.234375 C 11.242188 -27.472656 11.644531 -27.421875 12.25 -27.078125 C 12.84375 -26.742188 13.289062 -26.09375 13.59375 -25.125 C 13.90625 -24.164062 13.71875 -23.070312 13.03125 -21.84375 C 12.445312 -20.800781 11.554688 -20.164062 10.359375 -19.9375 C 9.160156 -19.707031 7.6875 -20.082031 5.9375 -21.0625 L 5.859375 -21.109375 C 5.484375 -21.128906 5.453125 -20.929688 5.765625 -20.515625 C 6.347656 -19.597656 6.832031 -18.566406 7.21875 -17.421875 C 7.601562 -16.285156 7.757812 -15.082031 7.6875 -13.8125 C 7.625 -12.550781 7.21875 -11.25 6.46875 -9.90625 C 5.601562 -8.375 4.378906 -7.1875 2.796875 -6.34375 C 1.222656 -5.5 -0.5625 -5.109375 -2.5625 -5.171875 C -4.5625 -5.234375 -6.601562 -5.851562 -8.6875 -7.03125 C -10.875 -8.257812 -12.5625 -9.789062 -13.75 -11.625 C -14.9375 -13.457031 -15.585938 -15.421875 -15.703125 -17.515625 C -15.828125 -19.617188 -15.34375 -21.640625 -14.25 -23.578125 C -12.789062 -26.179688 -10.566406 -27.863281 -7.578125 -28.625 L -15.421875 -33.046875 C -16.648438 -33.734375 -17.492188 -34.085938 -17.953125 -34.109375 C -18.421875 -34.128906 -18.78125 -33.921875 -19.03125 -33.484375 C -19.269531 -33.179688 -19.519531 -33.046875 -19.78125 -33.078125 C -20.039062 -33.109375 -20.257812 -33.191406 -20.4375 -33.328125 C -20.613281 -33.472656 -20.703125 -33.546875 -20.703125 -33.546875 C -20.171875 -34.898438 -19.847656 -36.132812 -19.734375 -37.25 C -19.617188 -38.375 -19.632812 -39.460938 -19.78125 -40.515625 C -19.78125 -40.515625 -19.664062 -40.648438 -19.4375 -40.921875 C -19.21875 -41.191406 -18.914062 -41.175781 -18.53125 -40.875 C -18.03125 -40.488281 -17.265625 -39.953125 -16.234375 -39.265625 C -15.203125 -38.578125 -14.03125 -37.828125 -12.71875 -37.015625 C -11.40625 -36.203125 -10.0625 -35.410156 -8.6875 -34.640625 L 7.578125 -25.515625 C 8.585938 -24.941406 9.363281 -24.609375 9.90625 -24.515625 C 10.457031 -24.429688 10.867188 -24.628906 11.140625 -25.109375 C 11.328125 -25.429688 11.359375 -25.726562 11.234375 -26 C 11.109375 -26.269531 10.976562 -26.503906 10.84375 -26.703125 Z M 5 -13.921875 C 5.550781 -14.910156 5.765625 -15.992188 5.640625 -17.171875 C 5.523438 -18.359375 5.101562 -19.535156 4.375 -20.703125 C 3.65625 -21.867188 2.640625 -22.851562 1.328125 -23.65625 L -1 -24.96875 C -2.289062 -25.632812 -3.71875 -26.007812 -5.28125 -26.09375 C -6.84375 -26.1875 -8.3125 -25.945312 -9.6875 -25.375 C -11.070312 -24.8125 -12.132812 -23.875 -12.875 -22.5625 C -13.988281 -20.582031 -14.269531 -18.664062 -13.71875 -16.8125 C -13.164062 -14.96875 -11.765625 -13.414062 -9.515625 -12.15625 C -7.816406 -11.195312 -6 -10.597656 -4.0625 -10.359375 C -2.125 -10.117188 -0.335938 -10.285156 1.296875 -10.859375 C 2.929688 -11.429688 4.164062 -12.453125 5 -13.921875 Z M 5 -13.921875 "/></g></g><g style="fill:#d3d2af;fill-opacity:1;"><g transform="translate(84.671426, 114.356722)"><path style="stroke:none" d="M -18.5625 -22.453125 C -19.125 -21.710938 -19.757812 -21.265625 -20.46875 -21.109375 C -21.1875 -20.960938 -21.835938 -21.113281 -22.421875 -21.5625 C -23.097656 -22.070312 -23.441406 -22.753906 -23.453125 -23.609375 C -23.472656 -24.472656 -23.171875 -25.316406 -22.546875 -26.140625 C -22.003906 -26.847656 -21.367188 -27.269531 -20.640625 -27.40625 C -19.921875 -27.539062 -19.269531 -27.390625 -18.6875 -26.953125 C -18.03125 -26.453125 -17.6875 -25.78125 -17.65625 -24.9375 C -17.632812 -24.09375 -17.9375 -23.265625 -18.5625 -22.453125 Z M -7.4375 -17.84375 L 2.03125 -10.640625 C 3.007812 -9.890625 3.820312 -9.515625 4.46875 -9.515625 C 5.113281 -9.515625 5.671875 -9.765625 6.140625 -10.265625 C 6.472656 -10.628906 6.765625 -10.78125 7.015625 -10.71875 C 7.265625 -10.65625 7.457031 -10.523438 7.59375 -10.328125 C 7.738281 -10.140625 7.789062 -10.019531 7.75 -9.96875 C 6.6875 -8.75 5.613281 -7.414062 4.53125 -5.96875 C 3.445312 -4.53125 2.382812 -3.066406 1.34375 -1.578125 C 1.320312 -1.554688 1.195312 -1.582031 0.96875 -1.65625 C 0.75 -1.726562 0.582031 -1.882812 0.46875 -2.125 C 0.351562 -2.375 0.425781 -2.703125 0.6875 -3.109375 C 1.070312 -3.722656 1.164062 -4.328125 0.96875 -4.921875 C 0.78125 -5.523438 0.179688 -6.210938 -0.828125 -6.984375 L -10.9375 -14.6875 C -11.488281 -15.101562 -11.992188 -15.335938 -12.453125 -15.390625 C -12.910156 -15.441406 -13.378906 -15.21875 -13.859375 -14.71875 C -14.109375 -14.476562 -14.351562 -14.394531 -14.59375 -14.46875 C -14.84375 -14.550781 -15.050781 -14.664062 -15.21875 -14.8125 C -15.382812 -14.957031 -15.46875 -15.03125 -15.46875 -15.03125 C -14.757812 -16.4375 -14.238281 -17.628906 -13.90625 -18.609375 C -13.582031 -19.585938 -13.410156 -20.546875 -13.390625 -21.484375 C -13.347656 -21.671875 -13.191406 -21.851562 -12.921875 -22.03125 C -12.648438 -22.207031 -12.457031 -22.234375 -12.34375 -22.109375 C -11.445312 -21.296875 -10.660156 -20.578125 -9.984375 -19.953125 C -9.316406 -19.335938 -8.46875 -18.632812 -7.4375 -17.84375 Z M -7.4375 -17.84375 "/></g></g><g style="fill:#d3d2af;fill-opacity:1;"><g transform="translate(92.459852, 103.341939)"><path style="stroke:none" d="M 15.515625 -20.296875 C 15.554688 -20.335938 15.710938 -20.425781 15.984375 -20.5625 C 16.265625 -20.695312 16.59375 -20.582031 16.96875 -20.21875 C 17.5 -19.6875 17.707031 -18.972656 17.59375 -18.078125 C 17.476562 -17.179688 17.0625 -16.367188 16.34375 -15.640625 C 14.5 -13.773438 12.265625 -13.9375 9.640625 -16.125 L 8.984375 -16.609375 C 9.867188 -14.828125 10.179688 -13.050781 9.921875 -11.28125 C 9.660156 -9.507812 8.925781 -8.007812 7.71875 -6.78125 C 6.363281 -5.414062 4.984375 -4.546875 3.578125 -4.171875 C 2.171875 -3.804688 0.84375 -3.816406 -0.40625 -4.203125 C -1.65625 -4.597656 -2.707031 -5.21875 -3.5625 -6.0625 C -5.300781 -7.78125 -6.085938 -9.765625 -5.921875 -12.015625 C -5.765625 -14.273438 -4.695312 -16.40625 -2.71875 -18.40625 C -2.019531 -19.125 -1.226562 -19.828125 -0.34375 -20.515625 C 0.539062 -21.210938 1.328125 -21.796875 2.015625 -22.265625 L 1.078125 -23.078125 C -0.796875 -24.628906 -2.484375 -25.335938 -3.984375 -25.203125 C -5.492188 -25.078125 -6.890625 -24.367188 -8.171875 -23.078125 C -9.210938 -22.035156 -9.945312 -20.941406 -10.375 -19.796875 C -10.8125 -18.648438 -11.023438 -17.441406 -11.015625 -16.171875 C -11.015625 -16.171875 -11.128906 -16.140625 -11.359375 -16.078125 C -11.585938 -16.023438 -11.816406 -16.066406 -12.046875 -16.203125 C -12.285156 -16.335938 -12.390625 -16.65625 -12.359375 -17.15625 C -12.421875 -18.363281 -12.132812 -19.71875 -11.5 -21.21875 C -10.863281 -22.71875 -9.847656 -24.171875 -8.453125 -25.578125 C -7.265625 -26.785156 -5.992188 -27.691406 -4.640625 -28.296875 C -3.296875 -28.898438 -1.847656 -29.054688 -0.296875 -28.765625 C 1.253906 -28.484375 2.921875 -27.609375 4.703125 -26.140625 L 12.5625 -19.71875 C 13.300781 -19.101562 13.878906 -18.753906 14.296875 -18.671875 C 14.722656 -18.585938 15.054688 -18.664062 15.296875 -18.90625 C 15.734375 -19.34375 15.804688 -19.804688 15.515625 -20.296875 Z M 6.09375 -18.96875 L 5.953125 -19.109375 L 3.46875 -21.125 C 2.75 -20.664062 1.96875 -20.117188 1.125 -19.484375 C 0.289062 -18.847656 -0.34375 -18.3125 -0.78125 -17.875 C -3.625 -15 -3.800781 -12.328125 -1.3125 -9.859375 C -0.332031 -8.898438 0.90625 -8.382812 2.40625 -8.3125 C 3.90625 -8.238281 5.34375 -8.898438 6.71875 -10.296875 C 7.40625 -10.984375 7.863281 -11.828125 8.09375 -12.828125 C 8.332031 -13.828125 8.289062 -14.867188 7.96875 -15.953125 C 7.644531 -17.046875 7.019531 -18.050781 6.09375 -18.96875 Z M 6.09375 -18.96875 "/></g></g><g style="fill:#d3d2af;fill-opacity:1;"><g transform="translate(111.118694, 85.042105)"><path style="stroke:none" d=""/></g></g><g style="fill:#d3d2af;fill-opacity:1;"><g transform="translate(118.751935, 77.989011)"><path style="stroke:none" d="M 15.078125 -9 L 4.375 -2.609375 C 4.082031 -2.429688 3.734375 -2.203125 3.328125 -1.921875 C 2.921875 -1.640625 2.570312 -1.410156 2.28125 -1.234375 C 2.25 -1.210938 2.117188 -1.351562 1.890625 -1.65625 C 1.660156 -1.96875 1.78125 -2.34375 2.25 -2.78125 C 2.96875 -3.445312 3.40625 -4.046875 3.5625 -4.578125 C 3.71875 -5.117188 3.425781 -6.007812 2.6875 -7.25 L -10.828125 -29.890625 C -11.566406 -31.128906 -12.207031 -31.800781 -12.75 -31.90625 C -13.289062 -32.019531 -14.03125 -31.921875 -14.96875 -31.609375 C -15.59375 -31.441406 -15.976562 -31.519531 -16.125 -31.84375 C -16.28125 -32.175781 -16.34375 -32.351562 -16.3125 -32.375 C -16.019531 -32.550781 -15.648438 -32.75 -15.203125 -32.96875 C -14.765625 -33.1875 -14.398438 -33.382812 -14.109375 -33.5625 L -8.1875 -37.109375 C -7.820312 -37.316406 -7.40625 -37.582031 -6.9375 -37.90625 C -6.476562 -38.226562 -6.097656 -38.476562 -5.796875 -38.65625 C -5.734375 -38.6875 -5.597656 -38.554688 -5.390625 -38.265625 C -5.179688 -37.972656 -5.320312 -37.578125 -5.8125 -37.078125 C -6.65625 -36.335938 -7.175781 -35.6875 -7.375 -35.125 C -7.582031 -34.5625 -7.316406 -33.660156 -6.578125 -32.421875 L 8.015625 -7.96875 C 8.296875 -7.5 8.585938 -7.257812 8.890625 -7.25 C 9.191406 -7.25 9.507812 -7.347656 9.84375 -7.546875 C 13.082031 -9.453125 15.554688 -11.015625 17.265625 -12.234375 C 18.984375 -13.460938 19.96875 -14.53125 20.21875 -15.4375 C 20.300781 -15.84375 20.285156 -16.359375 20.171875 -16.984375 C 20.054688 -17.617188 19.796875 -18.503906 19.390625 -19.640625 C 18.992188 -20.785156 18.421875 -22.289062 17.671875 -24.15625 C 17.398438 -24.800781 17.382812 -25.304688 17.625 -25.671875 C 17.875 -26.035156 18.164062 -26.285156 18.5 -26.421875 C 18.832031 -26.554688 19.015625 -26.597656 19.046875 -26.546875 C 19.878906 -24.566406 20.785156 -22.535156 21.765625 -20.453125 C 22.742188 -18.378906 23.675781 -16.664062 24.5625 -15.3125 C 24.976562 -14.6875 24.929688 -14.226562 24.421875 -13.9375 C 24.179688 -13.789062 23.726562 -13.578125 23.0625 -13.296875 C 22.394531 -13.015625 21.425781 -12.546875 20.15625 -11.890625 C 18.894531 -11.234375 17.203125 -10.269531 15.078125 -9 Z M 15.078125 -9 "/></g></g><g style="fill:#d3d2af;fill-opacity:1;"><g transform="translate(145.31428, 62.729669)"><path style="stroke:none" d="M -4.84375 -28.734375 C -5.695312 -28.367188 -6.472656 -28.300781 -7.171875 -28.53125 C -7.867188 -28.757812 -8.359375 -29.207031 -8.640625 -29.875 C -8.960938 -30.664062 -8.914062 -31.4375 -8.5 -32.1875 C -8.082031 -32.9375 -7.398438 -33.507812 -6.453125 -33.90625 C -5.628906 -34.25 -4.867188 -34.300781 -4.171875 -34.0625 C -3.472656 -33.820312 -2.984375 -33.363281 -2.703125 -32.6875 C -2.390625 -31.925781 -2.425781 -31.175781 -2.8125 -30.4375 C -3.207031 -29.695312 -3.882812 -29.128906 -4.84375 -28.734375 Z M 2.5 -19.171875 L 7.078125 -8.203125 C 7.546875 -7.054688 8.0625 -6.320312 8.625 -6 C 9.1875 -5.675781 9.796875 -5.613281 10.453125 -5.8125 C 10.921875 -5.96875 11.242188 -5.953125 11.421875 -5.765625 C 11.609375 -5.585938 11.710938 -5.378906 11.734375 -5.140625 C 11.765625 -4.910156 11.753906 -4.785156 11.703125 -4.765625 C 10.171875 -4.234375 8.570312 -3.613281 6.90625 -2.90625 C 5.25 -2.195312 3.597656 -1.460938 1.953125 -0.703125 C 1.921875 -0.691406 1.828125 -0.769531 1.671875 -0.9375 C 1.515625 -1.113281 1.441406 -1.335938 1.453125 -1.609375 C 1.472656 -1.878906 1.707031 -2.125 2.15625 -2.34375 C 2.789062 -2.6875 3.171875 -3.160156 3.296875 -3.765625 C 3.429688 -4.378906 3.253906 -5.273438 2.765625 -6.453125 L -2.125 -18.1875 C -2.382812 -18.820312 -2.703125 -19.273438 -3.078125 -19.546875 C -3.453125 -19.828125 -3.96875 -19.867188 -4.625 -19.671875 C -4.976562 -19.597656 -5.234375 -19.65625 -5.390625 -19.84375 C -5.554688 -20.03125 -5.675781 -20.226562 -5.75 -20.4375 C -5.832031 -20.65625 -5.875 -20.765625 -5.875 -20.765625 C -4.550781 -21.617188 -3.503906 -22.390625 -2.734375 -23.078125 C -1.960938 -23.765625 -1.332031 -24.507812 -0.84375 -25.3125 C -0.726562 -25.445312 -0.503906 -25.523438 -0.171875 -25.546875 C 0.148438 -25.566406 0.332031 -25.488281 0.375 -25.3125 C 0.738281 -24.164062 1.054688 -23.15625 1.328125 -22.28125 C 1.597656 -21.414062 1.988281 -20.378906 2.5 -19.171875 Z M 2.5 -19.171875 "/></g></g><g style="fill:#d3d2af;fill-opacity:1;"><g transform="translate(157.459905, 56.998397)"><path style="stroke:none" d="M 11.578125 -27.890625 C 13.234375 -28.335938 14.898438 -28.28125 16.578125 -27.71875 C 18.253906 -27.164062 19.753906 -26.148438 21.078125 -24.671875 C 22.410156 -23.203125 23.390625 -21.289062 24.015625 -18.9375 C 24.609375 -16.6875 24.691406 -14.488281 24.265625 -12.34375 C 23.835938 -10.207031 22.925781 -8.351562 21.53125 -6.78125 C 20.144531 -5.207031 18.304688 -4.113281 16.015625 -3.5 C 14.554688 -3.113281 13.28125 -2.941406 12.1875 -2.984375 C 11.09375 -3.023438 10.140625 -3.15625 9.328125 -3.375 C 8.523438 -3.59375 7.828125 -3.789062 7.234375 -3.96875 C 6.640625 -4.144531 6.109375 -4.171875 5.640625 -4.046875 C 5.304688 -3.960938 5.019531 -3.5625 4.78125 -2.84375 C 4.550781 -2.125 4.351562 -1.488281 4.1875 -0.9375 C 4.175781 -0.800781 4.054688 -0.691406 3.828125 -0.609375 C 3.609375 -0.535156 3.453125 -0.710938 3.359375 -1.140625 C 3.203125 -2.566406 2.96875 -3.957031 2.65625 -5.3125 C 2.351562 -6.675781 2.066406 -7.875 1.796875 -8.90625 L -3.8125 -29.671875 C -4.175781 -31.035156 -4.507812 -31.890625 -4.8125 -32.234375 C -5.113281 -32.585938 -5.507812 -32.695312 -6 -32.5625 C -6.382812 -32.519531 -6.65625 -32.601562 -6.8125 -32.8125 C -6.976562 -33.019531 -7.066406 -33.234375 -7.078125 -33.453125 C -7.085938 -33.679688 -7.09375 -33.796875 -7.09375 -33.796875 C -5.78125 -34.367188 -4.671875 -35.003906 -3.765625 -35.703125 C -2.867188 -36.410156 -2.109375 -37.179688 -1.484375 -38.015625 C -1.453125 -38.023438 -1.257812 -38.039062 -0.90625 -38.0625 C -0.5625 -38.082031 -0.378906 -37.847656 -0.359375 -37.359375 C -0.296875 -36.734375 -0.148438 -35.8125 0.078125 -34.59375 C 0.316406 -33.375 0.609375 -32.015625 0.953125 -30.515625 C 1.304688 -29.015625 1.6875 -27.5 2.09375 -25.96875 L 3.125 -22.03125 L 3.140625 -22.09375 C 3.285156 -21.5625 3.46875 -20.984375 3.6875 -20.359375 C 3.90625 -19.742188 4.070312 -19.421875 4.1875 -19.390625 C 4.445312 -20.585938 4.847656 -21.757812 5.390625 -22.90625 C 5.941406 -24.050781 6.71875 -25.066406 7.71875 -25.953125 C 8.726562 -26.835938 10.015625 -27.484375 11.578125 -27.890625 Z M 15.96875 -5.25 C 18.132812 -5.820312 19.664062 -6.953125 20.5625 -8.640625 C 21.46875 -10.335938 21.597656 -12.398438 20.953125 -14.828125 C 20.453125 -16.710938 19.597656 -18.425781 18.390625 -19.96875 C 17.191406 -21.507812 15.8125 -22.671875 14.25 -23.453125 C 12.6875 -24.234375 11.128906 -24.414062 9.578125 -24 C 8.441406 -23.695312 7.46875 -23.066406 6.65625 -22.109375 C 5.84375 -21.148438 5.296875 -19.96875 5.015625 -18.5625 C 4.742188 -17.164062 4.816406 -15.664062 5.234375 -14.0625 L 5.625 -12.578125 C 5.90625 -11.546875 6.378906 -10.53125 7.046875 -9.53125 C 7.710938 -8.539062 8.515625 -7.664062 9.453125 -6.90625 C 10.398438 -6.144531 11.429688 -5.601562 12.546875 -5.28125 C 13.671875 -4.957031 14.8125 -4.945312 15.96875 -5.25 Z M 15.96875 -5.25 "/></g></g><g style="fill:#d3d2af;fill-opacity:1;"><g transform="translate(184.93885, 49.89593)"><path style="stroke:none" d="M 14.234375 -25.53125 C 15.285156 -25.632812 16.257812 -25.503906 17.15625 -25.140625 C 18.0625 -24.785156 18.765625 -24.265625 19.265625 -23.578125 C 19.765625 -22.890625 19.9375 -22.085938 19.78125 -21.171875 L 18.71875 -15.359375 C 18.726562 -15.296875 18.578125 -15.238281 18.265625 -15.1875 C 17.953125 -15.132812 17.640625 -15.179688 17.328125 -15.328125 C 17.023438 -15.472656 16.867188 -15.800781 16.859375 -16.3125 C 16.921875 -18.113281 16.785156 -19.460938 16.453125 -20.359375 C 16.128906 -21.265625 15.640625 -21.863281 14.984375 -22.15625 C 14.335938 -22.445312 13.566406 -22.550781 12.671875 -22.46875 C 11.617188 -22.363281 10.785156 -21.921875 10.171875 -21.140625 C 9.554688 -20.359375 9.128906 -19.398438 8.890625 -18.265625 C 8.660156 -17.140625 8.535156 -15.96875 8.515625 -14.75 C 8.503906 -13.539062 8.546875 -12.460938 8.640625 -11.515625 L 9.203125 -5.765625 C 9.328125 -4.535156 9.613281 -3.6875 10.0625 -3.21875 C 10.507812 -2.75 11.078125 -2.515625 11.765625 -2.515625 C 12.242188 -2.523438 12.5625 -2.414062 12.71875 -2.1875 C 12.875 -1.96875 12.929688 -1.738281 12.890625 -1.5 C 12.847656 -1.269531 12.757812 -1.148438 12.625 -1.140625 C 11.007812 -1.085938 9.3125 -0.960938 7.53125 -0.765625 C 5.75 -0.578125 3.957031 -0.359375 2.15625 -0.109375 C 2.0625 -0.0976562 1.960938 -0.195312 1.859375 -0.40625 C 1.765625 -0.625 1.773438 -0.859375 1.890625 -1.109375 C 2.015625 -1.367188 2.316406 -1.546875 2.796875 -1.640625 C 3.535156 -1.773438 4.046875 -2.113281 4.328125 -2.65625 C 4.617188 -3.195312 4.703125 -4.097656 4.578125 -5.359375 L 3.328125 -18.015625 C 3.253906 -18.703125 3.082031 -19.234375 2.8125 -19.609375 C 2.539062 -19.984375 2.054688 -20.171875 1.359375 -20.171875 C 1.015625 -20.203125 0.785156 -20.332031 0.671875 -20.5625 C 0.566406 -20.789062 0.519531 -21.015625 0.53125 -21.234375 C 0.539062 -21.460938 0.546875 -21.578125 0.546875 -21.578125 C 2.015625 -22.003906 3.222656 -22.4375 4.171875 -22.875 C 5.117188 -23.3125 5.9375 -23.84375 6.625 -24.46875 C 6.789062 -24.550781 7.035156 -24.554688 7.359375 -24.484375 C 7.679688 -24.410156 7.847656 -24.285156 7.859375 -24.109375 C 7.847656 -23.140625 7.847656 -22.257812 7.859375 -21.46875 C 7.867188 -20.6875 7.882812 -19.84375 7.90625 -18.9375 C 8.15625 -19.9375 8.515625 -20.90625 8.984375 -21.84375 C 9.460938 -22.789062 10.117188 -23.609375 10.953125 -24.296875 C 11.796875 -24.992188 12.890625 -25.40625 14.234375 -25.53125 Z M 14.234375 -25.53125 "/></g></g><g style="fill:#d3d2af;fill-opacity:1;"><g transform="translate(206.159664, 47.949125)"><path style="stroke:none" d="M 7.015625 -28.28125 C 6.085938 -28.289062 5.347656 -28.539062 4.796875 -29.03125 C 4.253906 -29.519531 3.988281 -30.128906 4 -30.859375 C 4.007812 -31.710938 4.351562 -32.398438 5.03125 -32.921875 C 5.71875 -33.441406 6.578125 -33.691406 7.609375 -33.671875 C 8.503906 -33.660156 9.21875 -33.40625 9.75 -32.90625 C 10.289062 -32.40625 10.554688 -31.789062 10.546875 -31.0625 C 10.535156 -30.238281 10.203125 -29.5625 9.546875 -29.03125 C 8.890625 -28.507812 8.046875 -28.257812 7.015625 -28.28125 Z M 9.9375 -16.59375 L 9.765625 -4.703125 C 9.742188 -3.460938 9.921875 -2.582031 10.296875 -2.0625 C 10.679688 -1.539062 11.21875 -1.242188 11.90625 -1.171875 C 12.394531 -1.117188 12.6875 -0.972656 12.78125 -0.734375 C 12.882812 -0.492188 12.898438 -0.257812 12.828125 -0.03125 C 12.753906 0.1875 12.6875 0.296875 12.625 0.296875 C 11.007812 0.171875 9.300781 0.101562 7.5 0.09375 C 5.695312 0.0820312 3.882812 0.0976562 2.0625 0.140625 C 2.03125 0.140625 1.976562 0.03125 1.90625 -0.1875 C 1.84375 -0.414062 1.867188 -0.648438 1.984375 -0.890625 C 2.109375 -1.128906 2.414062 -1.265625 2.90625 -1.296875 C 3.625 -1.347656 4.164062 -1.628906 4.53125 -2.140625 C 4.90625 -2.648438 5.101562 -3.539062 5.125 -4.8125 L 5.3125 -17.53125 C 5.320312 -18.21875 5.207031 -18.757812 4.96875 -19.15625 C 4.738281 -19.5625 4.28125 -19.804688 3.59375 -19.890625 C 3.25 -19.953125 3.035156 -20.101562 2.953125 -20.34375 C 2.867188 -20.59375 2.835938 -20.828125 2.859375 -21.046875 C 2.878906 -21.273438 2.890625 -21.390625 2.890625 -21.390625 C 4.441406 -21.640625 5.707031 -21.925781 6.6875 -22.25 C 7.664062 -22.582031 8.539062 -23.019531 9.3125 -23.5625 C 9.476562 -23.625 9.710938 -23.597656 10.015625 -23.484375 C 10.328125 -23.378906 10.46875 -23.242188 10.4375 -23.078125 C 10.3125 -21.878906 10.203125 -20.820312 10.109375 -19.90625 C 10.015625 -19 9.957031 -17.894531 9.9375 -16.59375 Z M 9.9375 -16.59375 "/></g></g><g style="fill:#d3d2af;fill-opacity:1;"><g transform="translate(219.793843, 47.89829)"><path style="stroke:none" d="M 1.609375 -3.640625 L 3.5 -8.34375 C 3.5 -8.375 3.625 -8.367188 3.875 -8.328125 C 4.125 -8.296875 4.375 -8.175781 4.625 -7.96875 C 4.882812 -7.769531 4.984375 -7.429688 4.921875 -6.953125 C 4.359375 -4.398438 4.539062 -2.601562 5.46875 -1.5625 C 6.394531 -0.53125 7.910156 0.113281 10.015625 0.375 C 11.554688 0.570312 12.878906 0.460938 13.984375 0.046875 C 15.085938 -0.367188 15.726562 -1.273438 15.90625 -2.671875 C 16.007812 -3.484375 15.90625 -4.226562 15.59375 -4.90625 C 15.289062 -5.582031 14.707031 -6.296875 13.84375 -7.046875 C 12.988281 -7.796875 11.773438 -8.679688 10.203125 -9.703125 C 9.191406 -10.460938 8.207031 -11.238281 7.25 -12.03125 C 6.300781 -12.832031 5.554688 -13.691406 5.015625 -14.609375 C 4.472656 -15.523438 4.265625 -16.492188 4.390625 -17.515625 C 4.597656 -19.148438 5.535156 -20.46875 7.203125 -21.46875 C 8.878906 -22.46875 11.296875 -22.765625 14.453125 -22.359375 C 15.847656 -22.179688 17.207031 -21.859375 18.53125 -21.390625 C 19.863281 -20.929688 20.921875 -20.375 21.703125 -19.71875 C 22.484375 -19.070312 22.703125 -18.335938 22.359375 -17.515625 L 20.421875 -12.875 C 20.421875 -12.84375 20.289062 -12.84375 20.03125 -12.875 C 19.78125 -12.90625 19.546875 -13.019531 19.328125 -13.21875 C 19.109375 -13.425781 19.023438 -13.734375 19.078125 -14.140625 C 19.609375 -16.148438 19.554688 -17.671875 18.921875 -18.703125 C 18.285156 -19.734375 16.757812 -20.398438 14.34375 -20.703125 C 13.082031 -20.867188 12.109375 -20.84375 11.421875 -20.625 C 10.742188 -20.414062 10.265625 -20.097656 9.984375 -19.671875 C 9.703125 -19.242188 9.53125 -18.773438 9.46875 -18.265625 C 9.34375 -17.273438 9.785156 -16.316406 10.796875 -15.390625 C 11.804688 -14.472656 13.039062 -13.488281 14.5 -12.4375 C 16.539062 -11.039062 18.195312 -9.6875 19.46875 -8.375 C 20.738281 -7.070312 21.257812 -5.539062 21.03125 -3.78125 C 20.75 -1.5 19.59375 0.132812 17.5625 1.125 C 15.539062 2.113281 12.957031 2.410156 9.8125 2.015625 C 8.144531 1.804688 6.640625 1.398438 5.296875 0.796875 C 3.953125 0.191406 2.929688 -0.503906 2.234375 -1.296875 C 1.546875 -2.097656 1.335938 -2.878906 1.609375 -3.640625 Z M 1.609375 -3.640625 "/></g></g></g></svg>