<svg xmlns="http://www.w3.org/2000/svg" xmlns:xlink="http://www.w3.org/1999/xlink" width="500" zoomAndPan="magnify" viewBox="0 0 375 374.999991" height="500" preserveAspectRatio="xMidYMid meet" version="1.2"><defs><clipPath id="1d16a7876a"><path d="M 22 8 L 332 8 L 332 368 L 22 368 Z M 22 8 "/></clipPath><clipPath id="18e745df1d"><path d="M 29.601562 0.789062 L 392.324219 15.019531 L 378.214844 374.742188 L 15.492188 360.511719 Z M 29.601562 0.789062 "/></clipPath><clipPath id="9d3f6deaf6"><path d="M 15.484375 360.769531 L 378.203125 375 L 392.3125 15.277344 L 29.59375 1.046875 Z M 15.484375 360.769531 "/></clipPath><clipPath id="60973f8847"><path d="M 321 264 L 375 264 L 375 324 L 321 324 Z M 321 264 "/></clipPath><clipPath id="95d0e1d767"><path d="M 29.601562 0.789062 L 392.324219 15.019531 L 378.214844 374.742188 L 15.492188 360.511719 Z M 29.601562 0.789062 "/></clipPath><clipPath id="74ce428568"><path d="M 15.484375 360.769531 L 378.203125 375 L 392.3125 15.277344 L 29.59375 1.046875 Z M 15.484375 360.769531 "/></clipPath><clipPath id="a9180580f3"><path d="M 328 226 L 354 226 L 354 252 L 328 252 Z M 328 226 "/></clipPath><clipPath id="8815acce34"><path d="M 29.601562 0.789062 L 392.324219 15.019531 L 378.214844 374.742188 L 15.492188 360.511719 Z M 29.601562 0.789062 "/></clipPath><clipPath id="37329fb1a2"><path d="M 15.484375 360.769531 L 378.203125 375 L 392.3125 15.277344 L 29.59375 1.046875 Z M 15.484375 360.769531 "/></clipPath><clipPath id="cabae1fa87"><path d="M 287 246 L 323 246 L 323 282 L 287 282 Z M 287 246 "/></clipPath><clipPath id="607fbdcf64"><path d="M 29.601562 0.789062 L 392.324219 15.019531 L 378.214844 374.742188 L 15.492188 360.511719 Z M 29.601562 0.789062 "/></clipPath><clipPath id="bbdd0d3fe8"><path d="M 15.484375 360.769531 L 378.203125 375 L 392.3125 15.277344 L 29.59375 1.046875 Z M 15.484375 360.769531 "/></clipPath></defs><g id="e844e5f545"><g clip-rule="nonzero" clip-path="url(#1d16a7876a)"><g clip-rule="nonzero" clip-path="url(#18e745df1d)"><g clip-rule="nonzero" clip-path="url(#9d3f6deaf6)"><path style=" stroke:none;fill-rule:nonzero;fill:#d3d2af;fill-opacity:1;" d="M 42.171875 177 C 38.410156 272.847656 113.0625 353.589844 208.902344 357.347656 C 255.609375 359.179688 298.703125 342.351562 331.074219 313.5625 C 296.742188 348.734375 248.226562 369.804688 195.246094 367.722656 C 95.964844 363.832031 18.640625 280.191406 22.535156 180.910156 C 26.429688 81.628906 110.066406 4.300781 209.351562 8.195312 C 219.023438 8.574219 228.480469 9.738281 237.6875 11.570312 C 232.691406 10.945312 227.640625 10.472656 222.515625 10.273438 C 126.675781 6.515625 45.929688 81.160156 42.171875 177 "/></g></g></g><g clip-rule="nonzero" clip-path="url(#60973f8847)"><g clip-rule="nonzero" clip-path="url(#95d0e1d767)"><g clip-rule="nonzero" clip-path="url(#74ce428568)"><path style=" stroke:none;fill-rule:nonzero;fill:#d3d2af;fill-opacity:1;" d="M 321.527344 292.789062 C 333.1875 292.445312 340.015625 291.964844 344.246094 289.316406 C 342.894531 286.214844 340.125 282.5625 335.929688 277.339844 C 340.808594 281.9375 344.230469 284.984375 347.214844 286.574219 C 350.191406 282.554688 351.195312 275.785156 352.460938 264.191406 C 352.804688 275.847656 353.277344 282.675781 355.933594 286.917969 C 359.027344 285.566406 362.679688 282.796875 367.902344 278.59375 C 363.308594 283.472656 360.265625 286.894531 358.675781 289.882812 C 362.6875 292.855469 369.457031 293.867188 381.054688 295.121094 C 369.394531 295.46875 362.566406 295.941406 358.332031 298.59375 C 359.683594 301.699219 362.453125 305.351562 366.648438 310.570312 C 361.769531 305.972656 358.347656 302.933594 355.367188 301.34375 C 352.386719 305.355469 351.382812 312.128906 350.125 323.722656 C 349.773438 312.0625 349.300781 305.234375 346.648438 301.003906 C 343.546875 302.355469 339.898438 305.117188 334.675781 309.316406 C 339.269531 304.441406 342.3125 301.015625 343.90625 298.03125 C 339.894531 295.050781 333.121094 294.046875 321.527344 292.789062 "/></g></g></g><g clip-rule="nonzero" clip-path="url(#a9180580f3)"><g clip-rule="nonzero" clip-path="url(#8815acce34)"><g clip-rule="nonzero" clip-path="url(#37329fb1a2)"><path style=" stroke:none;fill-rule:nonzero;fill:#d3d2af;fill-opacity:1;" d="M 328.507812 238.105469 C 333.398438 237.964844 336.269531 237.757812 338.039062 236.648438 C 337.476562 235.347656 336.316406 233.816406 334.554688 231.625 C 336.597656 233.550781 338.039062 234.828125 339.289062 235.5 C 340.535156 233.8125 340.957031 230.96875 341.488281 226.109375 C 341.636719 230.996094 341.832031 233.863281 342.945312 235.644531 C 344.246094 235.070312 345.777344 233.910156 347.972656 232.148438 C 346.042969 234.199219 344.765625 235.636719 344.09375 236.882812 C 345.78125 238.132812 348.621094 238.5625 353.492188 239.085938 C 348.597656 239.230469 345.730469 239.429688 343.953125 240.539062 C 344.523438 241.84375 345.683594 243.378906 347.445312 245.566406 C 345.394531 243.640625 343.960938 242.363281 342.707031 241.695312 C 341.460938 243.382812 341.039062 246.21875 340.507812 251.085938 C 340.363281 246.191406 340.164062 243.332031 339.050781 241.554688 C 337.753906 242.117188 336.214844 243.277344 334.027344 245.039062 C 335.957031 242.996094 337.230469 241.558594 337.898438 240.304688 C 336.21875 239.054688 333.375 238.632812 328.507812 238.105469 "/></g></g></g><g clip-rule="nonzero" clip-path="url(#cabae1fa87)"><g clip-rule="nonzero" clip-path="url(#607fbdcf64)"><g clip-rule="nonzero" clip-path="url(#bbdd0d3fe8)"><path style=" stroke:none;fill-rule:nonzero;fill:#d3d2af;fill-opacity:1;" d="M 287.3125 263.523438 C 294.128906 263.3125 298.117188 263.035156 300.589844 261.488281 C 299.804688 259.675781 298.1875 257.542969 295.730469 254.488281 C 298.578125 257.175781 300.585938 258.957031 302.328125 259.882812 C 304.070312 257.539062 304.652344 253.585938 305.390625 246.808594 C 305.589844 253.621094 305.867188 257.609375 307.421875 260.082031 C 309.234375 259.296875 311.363281 257.675781 314.417969 255.222656 C 311.734375 258.078125 309.953125 260.074219 309.019531 261.820312 C 311.371094 263.554688 315.328125 264.144531 322.101562 264.886719 C 315.289062 265.082031 311.300781 265.359375 308.820312 266.914062 C 309.617188 268.726562 311.230469 270.855469 313.683594 273.910156 C 310.832031 271.226562 308.835938 269.445312 307.09375 268.519531 C 305.347656 270.863281 304.757812 274.820312 304.023438 281.59375 C 303.820312 274.78125 303.550781 270.792969 301.996094 268.316406 C 300.1875 269.105469 298.046875 270.722656 294.996094 273.175781 C 297.6875 270.324219 299.464844 268.328125 300.390625 266.582031 C 298.046875 264.839844 294.09375 264.25 287.3125 263.523438 "/></g></g></g><g style="fill:#d3d2af;fill-opacity:1;"><g transform="translate(77.374862, 234.158718)"><path style="stroke:none" d="M 128.5625 -4.484375 C 130.1875 -3.984375 130.9375 -3.046875 130.8125 -1.671875 C 130.6875 -0.304688 130.5625 0.375 130.4375 0.375 C 129.5625 0.375 128.5 0.3125 127.25 0.1875 C 126.007812 0.0625 124.890625 0 123.890625 0 L 98.484375 0 C 96.859375 0 94.988281 0.0625 92.875 0.1875 C 90.757812 0.3125 89.015625 0.375 87.640625 0.375 C 87.515625 0.375 87.359375 0.03125 87.171875 -0.65625 C 86.984375 -1.34375 87.109375 -2.054688 87.546875 -2.796875 C 87.984375 -3.546875 89.078125 -4.109375 90.828125 -4.484375 C 95.054688 -5.234375 97.945312 -6.257812 99.5 -7.5625 C 101.0625 -8.875 100.785156 -11.957031 98.671875 -16.8125 L 91.5625 -33.640625 C 91.070312 -34.753906 90.453125 -35.4375 89.703125 -35.6875 C 88.953125 -35.9375 87.890625 -36.0625 86.515625 -36.0625 C 77.171875 -36.0625 68.015625 -36.03125 59.046875 -35.96875 C 50.078125 -35.90625 40.859375 -35.9375 31.390625 -36.0625 C 30.148438 -36.0625 29.25 -35.90625 28.6875 -35.59375 C 28.125 -35.28125 27.53125 -34.628906 26.90625 -33.640625 L 26.90625 -33.828125 L 19.8125 -16.8125 C 17.8125 -11.957031 17.617188 -8.875 19.234375 -7.5625 C 20.859375 -6.257812 23.914062 -5.234375 28.40625 -4.484375 C 30.269531 -4.109375 31.453125 -3.546875 31.953125 -2.796875 C 32.453125 -2.054688 32.609375 -1.34375 32.421875 -0.65625 C 32.234375 0.03125 32.015625 0.375 31.765625 0.375 C 30.398438 0.375 28.5625 0.3125 26.25 0.1875 C 23.945312 0.0625 21.988281 0 20.375 0 L 8.03125 0 C 7.164062 0 6.046875 0.0625 4.671875 0.1875 C 3.296875 0.3125 2.175781 0.375 1.3125 0.375 C 1.1875 0.375 1.0625 -0.304688 0.9375 -1.671875 C 0.8125 -3.046875 1.554688 -3.984375 3.171875 -4.484375 C 4.921875 -4.984375 6.351562 -5.570312 7.46875 -6.25 C 8.59375 -6.9375 9.648438 -8.054688 10.640625 -9.609375 C 11.640625 -11.171875 12.828125 -13.570312 14.203125 -16.8125 L 54.5625 -113.625 C 55.3125 -115.738281 55.5 -117.851562 55.125 -119.96875 L 53.640625 -123.71875 C 53.140625 -124.957031 52.671875 -125.734375 52.234375 -126.046875 C 51.796875 -126.359375 51.203125 -126.640625 50.453125 -126.890625 C 48.835938 -127.390625 48.15625 -128.164062 48.40625 -129.21875 C 48.65625 -130.28125 49.023438 -130.8125 49.515625 -130.8125 L 60.921875 -130.8125 C 64.910156 -130.8125 67.585938 -130.40625 68.953125 -129.59375 C 70.328125 -128.789062 71.632812 -126.769531 72.875 -123.53125 L 117.734375 -16.8125 C 119.097656 -13.570312 120.28125 -11.171875 121.28125 -9.609375 C 122.28125 -8.054688 123.335938 -6.9375 124.453125 -6.25 C 125.578125 -5.570312 126.945312 -4.984375 128.5625 -4.484375 Z M 85.21875 -41.296875 C 86.332031 -41.296875 86.984375 -41.640625 87.171875 -42.328125 C 87.359375 -43.015625 87.328125 -43.671875 87.078125 -44.296875 L 59.046875 -111 L 31.390625 -44.46875 C 30.523438 -42.351562 31.148438 -41.296875 33.265625 -41.296875 Z M 85.21875 -41.296875 "/></g></g><g style="fill:#d3d2af;fill-opacity:1;"><g transform="translate(214.324135, 234.613506)"><path style="stroke:none" d="M 64.359375 0 L 18.6875 0 C 17.425781 0 15.882812 0.0625 14.0625 0.1875 C 12.238281 0.3125 10.695312 0.375 9.4375 0.375 C 9.3125 0.375 9.1875 -0.316406 9.0625 -1.703125 C 8.9375 -3.085938 10.003906 -4.03125 12.265625 -4.53125 C 15.785156 -5.28125 18.300781 -6.347656 19.8125 -7.734375 C 21.320312 -9.117188 22.078125 -12.453125 22.078125 -17.734375 L 22.078125 -114.359375 C 22.078125 -119.648438 21.320312 -122.984375 19.8125 -124.359375 C 18.300781 -125.742188 15.785156 -126.816406 12.265625 -127.578125 C 10.003906 -128.203125 8.9375 -129.175781 9.0625 -130.5 C 9.1875 -131.820312 9.3125 -132.484375 9.4375 -132.484375 C 10.695312 -132.484375 12.238281 -132.421875 14.0625 -132.296875 C 15.882812 -132.171875 17.425781 -132.109375 18.6875 -132.109375 L 43.96875 -132.109375 C 45.476562 -132.109375 47.269531 -132.171875 49.34375 -132.296875 C 51.425781 -132.421875 53.09375 -132.484375 54.34375 -132.484375 C 54.601562 -132.484375 54.796875 -131.820312 54.921875 -130.5 C 55.046875 -129.175781 53.847656 -128.203125 51.328125 -127.578125 C 47.304688 -126.816406 44.445312 -125.742188 42.75 -124.359375 C 41.050781 -122.984375 40.203125 -119.648438 40.203125 -114.359375 L 40.203125 -10 C 40.203125 -7.988281 40.671875 -6.695312 41.609375 -6.125 C 42.554688 -5.5625 43.722656 -5.28125 45.109375 -5.28125 C 58.941406 -5.15625 69.695312 -5.40625 77.375 -6.03125 C 85.050781 -6.664062 90.144531 -8.175781 92.65625 -10.5625 C 93.664062 -11.695312 94.578125 -13.363281 95.390625 -15.5625 C 96.210938 -17.769531 97.0625 -21.039062 97.9375 -25.375 C 98.820312 -29.71875 99.832031 -35.539062 100.96875 -42.84375 C 101.34375 -45.351562 102.253906 -46.953125 103.703125 -47.640625 C 105.148438 -48.335938 106.53125 -48.59375 107.84375 -48.40625 C 109.164062 -48.21875 109.828125 -48 109.828125 -47.75 C 108.703125 -39.945312 107.726562 -31.863281 106.90625 -23.5 C 106.09375 -15.132812 105.8125 -7.992188 106.0625 -2.078125 C 106.1875 0.691406 105.179688 2.078125 103.046875 2.078125 C 102.035156 2.078125 100.207031 1.882812 97.5625 1.5 C 94.925781 1.125 90.992188 0.78125 85.765625 0.46875 C 80.546875 0.15625 73.410156 0 64.359375 0 Z M 64.359375 0 "/></g></g></g></svg>